<mxfile host="Electron" modified="2024-05-26T11:05:15.921Z" agent="Mozilla/5.0 (Windows NT 10.0; Win64; x64) AppleWebKit/537.36 (KHTML, like Gecko) draw.io/24.4.8 Chrome/124.0.6367.207 Electron/30.0.6 Safari/537.36" etag="Zr4M-nHwRoeBsMgucDq-" version="24.4.8" type="device">
  <diagram name="Página-1" id="AtuJgsWH9a9kCrHO1-PI">
    <mxGraphModel dx="5736" dy="3344" grid="1" gridSize="10" guides="1" tooltips="1" connect="1" arrows="1" fold="1" page="1" pageScale="1" pageWidth="3300" pageHeight="4681" math="0" shadow="0">
      <root>
        <mxCell id="0" />
        <mxCell id="1" parent="0" />
        <mxCell id="cElaBjvzB2i9X2xWvgC5-6" value="" style="edgeStyle=orthogonalEdgeStyle;rounded=0;orthogonalLoop=1;jettySize=auto;html=1;entryX=0;entryY=0.5;entryDx=0;entryDy=0;" parent="1" source="cElaBjvzB2i9X2xWvgC5-1" target="cElaBjvzB2i9X2xWvgC5-15" edge="1">
          <mxGeometry relative="1" as="geometry">
            <mxPoint x="680" y="120" as="targetPoint" />
          </mxGeometry>
        </mxCell>
        <mxCell id="cElaBjvzB2i9X2xWvgC5-1" value="APP TPV&lt;div&gt;Inicio&lt;/div&gt;" style="rounded=1;whiteSpace=wrap;html=1;fillColor=#60a917;fontColor=#ffffff;strokeColor=#2D7600;" parent="1" vertex="1">
          <mxGeometry x="590" y="90" width="120" height="60" as="geometry" />
        </mxCell>
        <mxCell id="cElaBjvzB2i9X2xWvgC5-4" value="Establecimiento de la&amp;nbsp;&lt;div&gt;conexion&lt;/div&gt;" style="swimlane;whiteSpace=wrap;html=1;startSize=30;fillColor=#a0522d;fontColor=#ffffff;strokeColor=#6D1F00;" parent="1" vertex="1">
          <mxGeometry x="804" y="50" width="396" height="310" as="geometry" />
        </mxCell>
        <mxCell id="cElaBjvzB2i9X2xWvgC5-8" value="" style="edgeStyle=orthogonalEdgeStyle;rounded=0;orthogonalLoop=1;jettySize=auto;html=1;" parent="cElaBjvzB2i9X2xWvgC5-4" edge="1">
          <mxGeometry relative="1" as="geometry">
            <mxPoint x="96" y="100" as="sourcePoint" />
            <mxPoint x="96" y="170" as="targetPoint" />
          </mxGeometry>
        </mxCell>
        <mxCell id="cElaBjvzB2i9X2xWvgC5-18" style="edgeStyle=orthogonalEdgeStyle;rounded=0;orthogonalLoop=1;jettySize=auto;html=1;exitX=1;exitY=0.5;exitDx=0;exitDy=0;entryX=0;entryY=0.5;entryDx=0;entryDy=0;entryPerimeter=0;" parent="cElaBjvzB2i9X2xWvgC5-4" target="cElaBjvzB2i9X2xWvgC5-118" edge="1">
          <mxGeometry relative="1" as="geometry">
            <mxPoint x="236" y="210" as="targetPoint" />
            <mxPoint x="136" y="210" as="sourcePoint" />
          </mxGeometry>
        </mxCell>
        <mxCell id="cElaBjvzB2i9X2xWvgC5-59" style="edgeStyle=orthogonalEdgeStyle;rounded=0;orthogonalLoop=1;jettySize=auto;html=1;exitX=0.5;exitY=1;exitDx=0;exitDy=0;" parent="cElaBjvzB2i9X2xWvgC5-4" edge="1">
          <mxGeometry relative="1" as="geometry">
            <mxPoint x="96" y="380" as="targetPoint" />
            <mxPoint x="96" y="250" as="sourcePoint" />
          </mxGeometry>
        </mxCell>
        <mxCell id="cElaBjvzB2i9X2xWvgC5-9" value="No validas/Salir" style="text;html=1;align=center;verticalAlign=middle;whiteSpace=wrap;rounded=0;" parent="cElaBjvzB2i9X2xWvgC5-4" vertex="1">
          <mxGeometry x="146" y="180" width="60" height="30" as="geometry" />
        </mxCell>
        <mxCell id="cElaBjvzB2i9X2xWvgC5-15" value="Acción INICIAL en la escena. Se establece la conexion con el Servido" style="rounded=0;whiteSpace=wrap;html=1;fillColor=#6d8764;fontColor=#ffffff;strokeColor=#3A5431;" parent="cElaBjvzB2i9X2xWvgC5-4" vertex="1">
          <mxGeometry x="36" y="40" width="254" height="60" as="geometry" />
        </mxCell>
        <mxCell id="cElaBjvzB2i9X2xWvgC5-10" value="Validas/Entrar" style="text;html=1;align=center;verticalAlign=middle;whiteSpace=wrap;rounded=0;" parent="cElaBjvzB2i9X2xWvgC5-4" vertex="1">
          <mxGeometry x="16" y="270" width="60" height="30" as="geometry" />
        </mxCell>
        <mxCell id="cElaBjvzB2i9X2xWvgC5-108" value="" style="rhombus;whiteSpace=wrap;html=1;rounded=0;fillColor=#fad7ac;strokeColor=#b46504;" parent="cElaBjvzB2i9X2xWvgC5-4" vertex="1">
          <mxGeometry x="56" y="170" width="80" height="80" as="geometry" />
        </mxCell>
        <mxCell id="cElaBjvzB2i9X2xWvgC5-19" value="Login de acceso" style="swimlane;whiteSpace=wrap;html=1;fillColor=#a0522d;fontColor=#ffffff;strokeColor=#6D1F00;" parent="1" vertex="1">
          <mxGeometry x="90" y="430" width="1110" height="430" as="geometry" />
        </mxCell>
        <mxCell id="cElaBjvzB2i9X2xWvgC5-21" value="" style="edgeStyle=orthogonalEdgeStyle;rounded=0;orthogonalLoop=1;jettySize=auto;html=1;" parent="cElaBjvzB2i9X2xWvgC5-19" source="cElaBjvzB2i9X2xWvgC5-16" target="cElaBjvzB2i9X2xWvgC5-20" edge="1">
          <mxGeometry relative="1" as="geometry" />
        </mxCell>
        <mxCell id="cElaBjvzB2i9X2xWvgC5-16" value="Acción INICIAL en la escena. Se introducen credenciales de Acceso" style="rounded=0;whiteSpace=wrap;html=1;fillColor=#6d8764;fontColor=#ffffff;strokeColor=#3A5431;" parent="cElaBjvzB2i9X2xWvgC5-19" vertex="1">
          <mxGeometry x="700" y="65" width="220" height="60" as="geometry" />
        </mxCell>
        <mxCell id="cElaBjvzB2i9X2xWvgC5-20" value="" style="rhombus;whiteSpace=wrap;html=1;rounded=0;fillColor=#fad7ac;strokeColor=#b46504;" parent="cElaBjvzB2i9X2xWvgC5-19" vertex="1">
          <mxGeometry x="770" y="200" width="80" height="80" as="geometry" />
        </mxCell>
        <mxCell id="cElaBjvzB2i9X2xWvgC5-24" value="Salir" style="text;html=1;align=center;verticalAlign=middle;whiteSpace=wrap;rounded=0;" parent="cElaBjvzB2i9X2xWvgC5-19" vertex="1">
          <mxGeometry x="870" y="210" width="60" height="30" as="geometry" />
        </mxCell>
        <mxCell id="cElaBjvzB2i9X2xWvgC5-27" value="Validas" style="text;html=1;align=center;verticalAlign=middle;whiteSpace=wrap;rounded=0;" parent="cElaBjvzB2i9X2xWvgC5-19" vertex="1">
          <mxGeometry x="750" y="320" width="60" height="30" as="geometry" />
        </mxCell>
        <mxCell id="cElaBjvzB2i9X2xWvgC5-30" value="No Validas" style="text;html=1;align=center;verticalAlign=middle;whiteSpace=wrap;rounded=0;" parent="cElaBjvzB2i9X2xWvgC5-19" vertex="1">
          <mxGeometry x="700" y="210" width="60" height="30" as="geometry" />
        </mxCell>
        <mxCell id="cElaBjvzB2i9X2xWvgC5-31" value="" style="rhombus;whiteSpace=wrap;html=1;rounded=0;fillColor=#fad7ac;strokeColor=#b46504;" parent="cElaBjvzB2i9X2xWvgC5-19" vertex="1">
          <mxGeometry x="600" y="200" width="80" height="80" as="geometry" />
        </mxCell>
        <mxCell id="cElaBjvzB2i9X2xWvgC5-29" value="" style="edgeStyle=orthogonalEdgeStyle;rounded=0;orthogonalLoop=1;jettySize=auto;html=1;entryX=1;entryY=0.5;entryDx=0;entryDy=0;" parent="cElaBjvzB2i9X2xWvgC5-19" source="cElaBjvzB2i9X2xWvgC5-20" target="cElaBjvzB2i9X2xWvgC5-31" edge="1">
          <mxGeometry relative="1" as="geometry">
            <mxPoint x="140" y="240" as="targetPoint" />
          </mxGeometry>
        </mxCell>
        <mxCell id="cElaBjvzB2i9X2xWvgC5-40" value="Nuevo usuario??" style="text;html=1;align=center;verticalAlign=middle;whiteSpace=wrap;rounded=0;" parent="cElaBjvzB2i9X2xWvgC5-19" vertex="1">
          <mxGeometry x="530" y="330" width="60" height="30" as="geometry" />
        </mxCell>
        <mxCell id="cElaBjvzB2i9X2xWvgC5-41" value="Contraseña olvidada??" style="text;html=1;align=center;verticalAlign=middle;whiteSpace=wrap;rounded=0;" parent="cElaBjvzB2i9X2xWvgC5-19" vertex="1">
          <mxGeometry x="530" y="210" width="60" height="30" as="geometry" />
        </mxCell>
        <mxCell id="cElaBjvzB2i9X2xWvgC5-36" value="Cambiar contraseña" style="whiteSpace=wrap;html=1;rounded=0;fillColor=#0050ef;fontColor=#ffffff;strokeColor=#001DBC;" parent="cElaBjvzB2i9X2xWvgC5-19" vertex="1">
          <mxGeometry x="380" y="210" width="120" height="60" as="geometry" />
        </mxCell>
        <mxCell id="cElaBjvzB2i9X2xWvgC5-37" value="" style="edgeStyle=orthogonalEdgeStyle;rounded=0;orthogonalLoop=1;jettySize=auto;html=1;" parent="cElaBjvzB2i9X2xWvgC5-19" source="cElaBjvzB2i9X2xWvgC5-31" target="cElaBjvzB2i9X2xWvgC5-36" edge="1">
          <mxGeometry relative="1" as="geometry" />
        </mxCell>
        <mxCell id="cElaBjvzB2i9X2xWvgC5-116" value="Volver a probar" style="text;html=1;align=center;verticalAlign=middle;whiteSpace=wrap;rounded=0;" parent="cElaBjvzB2i9X2xWvgC5-19" vertex="1">
          <mxGeometry x="87" y="125" width="60" height="30" as="geometry" />
        </mxCell>
        <mxCell id="cElaBjvzB2i9X2xWvgC5-117" value="Volver a probar" style="text;html=1;align=center;verticalAlign=middle;whiteSpace=wrap;rounded=0;" parent="cElaBjvzB2i9X2xWvgC5-19" vertex="1">
          <mxGeometry x="10" y="280" width="60" height="30" as="geometry" />
        </mxCell>
        <mxCell id="cElaBjvzB2i9X2xWvgC5-23" value="" style="edgeStyle=orthogonalEdgeStyle;rounded=0;orthogonalLoop=1;jettySize=auto;html=1;" parent="1" source="cElaBjvzB2i9X2xWvgC5-20" edge="1">
          <mxGeometry relative="1" as="geometry">
            <mxPoint x="1050" y="670" as="targetPoint" />
          </mxGeometry>
        </mxCell>
        <mxCell id="cElaBjvzB2i9X2xWvgC5-32" value="Pantalla Principal" style="swimlane;whiteSpace=wrap;html=1;fillColor=#a0522d;fontColor=#ffffff;strokeColor=#6D1F00;" parent="1" vertex="1">
          <mxGeometry x="220" y="900" width="970" height="780" as="geometry">
            <mxRectangle x="-370" y="900" width="130" height="30" as="alternateBounds" />
          </mxGeometry>
        </mxCell>
        <mxCell id="cElaBjvzB2i9X2xWvgC5-89" value="" style="edgeStyle=orthogonalEdgeStyle;rounded=0;orthogonalLoop=1;jettySize=auto;html=1;" parent="cElaBjvzB2i9X2xWvgC5-32" source="cElaBjvzB2i9X2xWvgC5-25" target="cElaBjvzB2i9X2xWvgC5-88" edge="1">
          <mxGeometry relative="1" as="geometry" />
        </mxCell>
        <mxCell id="cElaBjvzB2i9X2xWvgC5-25" value="Acción INICIAL en la escena. Seleccionar un Boton" style="whiteSpace=wrap;html=1;rounded=0;fillColor=#6d8764;fontColor=#ffffff;strokeColor=#3A5431;" parent="cElaBjvzB2i9X2xWvgC5-32" vertex="1">
          <mxGeometry x="620" y="110" width="120" height="60" as="geometry" />
        </mxCell>
        <mxCell id="cElaBjvzB2i9X2xWvgC5-93" style="edgeStyle=orthogonalEdgeStyle;rounded=0;orthogonalLoop=1;jettySize=auto;html=1;exitX=0.5;exitY=1;exitDx=0;exitDy=0;entryX=0;entryY=0.5;entryDx=0;entryDy=0;" parent="cElaBjvzB2i9X2xWvgC5-32" source="cElaBjvzB2i9X2xWvgC5-88" target="cElaBjvzB2i9X2xWvgC5-87" edge="1">
          <mxGeometry relative="1" as="geometry" />
        </mxCell>
        <mxCell id="cElaBjvzB2i9X2xWvgC5-88" value="" style="rhombus;whiteSpace=wrap;html=1;rounded=0;fillColor=#fad7ac;strokeColor=#b46504;" parent="cElaBjvzB2i9X2xWvgC5-32" vertex="1">
          <mxGeometry x="420" y="100" width="80" height="80" as="geometry" />
        </mxCell>
        <mxCell id="cElaBjvzB2i9X2xWvgC5-92" value="Salir" style="text;html=1;align=center;verticalAlign=middle;whiteSpace=wrap;rounded=0;" parent="cElaBjvzB2i9X2xWvgC5-32" vertex="1">
          <mxGeometry x="660" y="40" width="60" height="30" as="geometry" />
        </mxCell>
        <mxCell id="cElaBjvzB2i9X2xWvgC5-61" value="Inicio" style="whiteSpace=wrap;html=1;rounded=0;fillColor=#0050ef;fontColor=#ffffff;strokeColor=#001DBC;" parent="cElaBjvzB2i9X2xWvgC5-32" vertex="1">
          <mxGeometry x="520" y="200" width="120" height="60" as="geometry" />
        </mxCell>
        <mxCell id="cElaBjvzB2i9X2xWvgC5-114" style="edgeStyle=orthogonalEdgeStyle;rounded=0;orthogonalLoop=1;jettySize=auto;html=1;exitX=1;exitY=0.5;exitDx=0;exitDy=0;" parent="cElaBjvzB2i9X2xWvgC5-32" source="cElaBjvzB2i9X2xWvgC5-75" edge="1">
          <mxGeometry relative="1" as="geometry">
            <mxPoint x="1120" y="310" as="targetPoint" />
          </mxGeometry>
        </mxCell>
        <mxCell id="cElaBjvzB2i9X2xWvgC5-75" value="Mesas/Comandas" style="whiteSpace=wrap;html=1;rounded=0;fillColor=#0050ef;fontColor=#ffffff;strokeColor=#001DBC;" parent="cElaBjvzB2i9X2xWvgC5-32" vertex="1">
          <mxGeometry x="520" y="280" width="120" height="60" as="geometry" />
        </mxCell>
        <mxCell id="cElaBjvzB2i9X2xWvgC5-83" value="Glosario de platos" style="whiteSpace=wrap;html=1;rounded=0;fillColor=#0050ef;fontColor=#ffffff;strokeColor=#001DBC;" parent="cElaBjvzB2i9X2xWvgC5-32" vertex="1">
          <mxGeometry x="520" y="360" width="120" height="60" as="geometry" />
        </mxCell>
        <mxCell id="cElaBjvzB2i9X2xWvgC5-84" value="Añadir/Actualizar platos" style="whiteSpace=wrap;html=1;rounded=0;fillColor=#0050ef;fontColor=#ffffff;strokeColor=#001DBC;" parent="cElaBjvzB2i9X2xWvgC5-32" vertex="1">
          <mxGeometry x="520" y="440" width="120" height="60" as="geometry" />
        </mxCell>
        <mxCell id="cElaBjvzB2i9X2xWvgC5-85" value="Detalles Comandas" style="whiteSpace=wrap;html=1;rounded=0;fillColor=#0050ef;fontColor=#ffffff;strokeColor=#001DBC;" parent="cElaBjvzB2i9X2xWvgC5-32" vertex="1">
          <mxGeometry x="520" y="520" width="120" height="60" as="geometry" />
        </mxCell>
        <mxCell id="cElaBjvzB2i9X2xWvgC5-86" value="Auditoria" style="whiteSpace=wrap;html=1;rounded=0;fillColor=#0050ef;fontColor=#ffffff;strokeColor=#001DBC;" parent="cElaBjvzB2i9X2xWvgC5-32" vertex="1">
          <mxGeometry x="520" y="600" width="120" height="60" as="geometry" />
        </mxCell>
        <mxCell id="cElaBjvzB2i9X2xWvgC5-87" value="Cerrar sesión" style="whiteSpace=wrap;html=1;rounded=0;fillColor=#0050ef;fontColor=#ffffff;strokeColor=#001DBC;" parent="cElaBjvzB2i9X2xWvgC5-32" vertex="1">
          <mxGeometry x="520" y="680" width="120" height="60" as="geometry" />
        </mxCell>
        <mxCell id="cElaBjvzB2i9X2xWvgC5-96" value="" style="endArrow=classic;html=1;rounded=0;entryX=0;entryY=0.5;entryDx=0;entryDy=0;" parent="cElaBjvzB2i9X2xWvgC5-32" edge="1">
          <mxGeometry width="50" height="50" relative="1" as="geometry">
            <mxPoint x="460" y="309.5" as="sourcePoint" />
            <mxPoint x="520" y="309.5" as="targetPoint" />
            <Array as="points">
              <mxPoint x="490" y="309.5" />
            </Array>
          </mxGeometry>
        </mxCell>
        <mxCell id="cElaBjvzB2i9X2xWvgC5-97" value="" style="endArrow=classic;html=1;rounded=0;entryX=0;entryY=0.5;entryDx=0;entryDy=0;" parent="cElaBjvzB2i9X2xWvgC5-32" edge="1">
          <mxGeometry width="50" height="50" relative="1" as="geometry">
            <mxPoint x="460" y="389.5" as="sourcePoint" />
            <mxPoint x="520" y="389.5" as="targetPoint" />
          </mxGeometry>
        </mxCell>
        <mxCell id="cElaBjvzB2i9X2xWvgC5-98" value="" style="endArrow=classic;html=1;rounded=0;entryX=0;entryY=0.5;entryDx=0;entryDy=0;" parent="cElaBjvzB2i9X2xWvgC5-32" edge="1">
          <mxGeometry width="50" height="50" relative="1" as="geometry">
            <mxPoint x="460" y="469.5" as="sourcePoint" />
            <mxPoint x="520" y="469.5" as="targetPoint" />
          </mxGeometry>
        </mxCell>
        <mxCell id="cElaBjvzB2i9X2xWvgC5-99" value="" style="endArrow=classic;html=1;rounded=0;entryX=0;entryY=0.5;entryDx=0;entryDy=0;fontStyle=1" parent="cElaBjvzB2i9X2xWvgC5-32" edge="1">
          <mxGeometry width="50" height="50" relative="1" as="geometry">
            <mxPoint x="460" y="549.5" as="sourcePoint" />
            <mxPoint x="520" y="549.5" as="targetPoint" />
          </mxGeometry>
        </mxCell>
        <mxCell id="cElaBjvzB2i9X2xWvgC5-100" value="" style="endArrow=classic;html=1;rounded=0;entryX=0;entryY=0.5;entryDx=0;entryDy=0;" parent="cElaBjvzB2i9X2xWvgC5-32" edge="1">
          <mxGeometry width="50" height="50" relative="1" as="geometry">
            <mxPoint x="460" y="629.5" as="sourcePoint" />
            <mxPoint x="520" y="629.5" as="targetPoint" />
          </mxGeometry>
        </mxCell>
        <mxCell id="cElaBjvzB2i9X2xWvgC5-106" value="Aceptar y cerrar sesión" style="text;html=1;align=center;verticalAlign=middle;whiteSpace=wrap;rounded=0;" parent="cElaBjvzB2i9X2xWvgC5-32" vertex="1">
          <mxGeometry x="120" y="670" width="100" height="30" as="geometry" />
        </mxCell>
        <mxCell id="cElaBjvzB2i9X2xWvgC5-107" value="Cancelar y NO cerrar sesion" style="text;html=1;align=center;verticalAlign=middle;whiteSpace=wrap;rounded=0;" parent="cElaBjvzB2i9X2xWvgC5-32" vertex="1">
          <mxGeometry x="210" y="430" width="90" height="30" as="geometry" />
        </mxCell>
        <mxCell id="cElaBjvzB2i9X2xWvgC5-337" value="Escoger un boton de la escena" style="text;html=1;align=center;verticalAlign=middle;whiteSpace=wrap;rounded=0;" parent="cElaBjvzB2i9X2xWvgC5-32" vertex="1">
          <mxGeometry x="390" y="390" width="60" height="30" as="geometry" />
        </mxCell>
        <mxCell id="cElaBjvzB2i9X2xWvgC5-112" value="" style="edgeStyle=orthogonalEdgeStyle;rounded=0;orthogonalLoop=1;jettySize=auto;html=1;" parent="cElaBjvzB2i9X2xWvgC5-32" source="cElaBjvzB2i9X2xWvgC5-61" target="cElaBjvzB2i9X2xWvgC5-111" edge="1">
          <mxGeometry relative="1" as="geometry" />
        </mxCell>
        <mxCell id="cElaBjvzB2i9X2xWvgC5-115" value="Clickar para entrar en la Escena" style="text;html=1;align=center;verticalAlign=middle;whiteSpace=wrap;rounded=0;" parent="cElaBjvzB2i9X2xWvgC5-32" vertex="1">
          <mxGeometry x="830" y="280" width="130" height="30" as="geometry" />
        </mxCell>
        <mxCell id="cElaBjvzB2i9X2xWvgC5-175" value="Clickar para entrar en la Escena" style="text;html=1;align=center;verticalAlign=middle;whiteSpace=wrap;rounded=0;" parent="cElaBjvzB2i9X2xWvgC5-32" vertex="1">
          <mxGeometry x="830" y="350" width="130" height="30" as="geometry" />
        </mxCell>
        <mxCell id="cElaBjvzB2i9X2xWvgC5-190" value="Clickar para entrar en la Escena" style="text;html=1;align=center;verticalAlign=middle;whiteSpace=wrap;rounded=0;" parent="cElaBjvzB2i9X2xWvgC5-32" vertex="1">
          <mxGeometry x="830" y="425" width="130" height="30" as="geometry" />
        </mxCell>
        <mxCell id="cElaBjvzB2i9X2xWvgC5-250" value="Clickar para entrar en la Escena" style="text;html=1;align=center;verticalAlign=middle;whiteSpace=wrap;rounded=0;" parent="cElaBjvzB2i9X2xWvgC5-32" vertex="1">
          <mxGeometry x="830" y="510" width="130" height="30" as="geometry" />
        </mxCell>
        <mxCell id="cElaBjvzB2i9X2xWvgC5-111" value="Imagen de portada" style="whiteSpace=wrap;html=1;rounded=0;fillColor=#a0522d;fontColor=#ffffff;strokeColor=#6D1F00;" parent="cElaBjvzB2i9X2xWvgC5-32" vertex="1">
          <mxGeometry x="830" y="200" width="120" height="60" as="geometry" />
        </mxCell>
        <mxCell id="cElaBjvzB2i9X2xWvgC5-120" value="Salir" style="rounded=0;whiteSpace=wrap;html=1;fillColor=#0050ef;fontColor=#ffffff;strokeColor=#001DBC;" parent="cElaBjvzB2i9X2xWvgC5-32" vertex="1">
          <mxGeometry x="810" y="40" width="120" height="60" as="geometry" />
        </mxCell>
        <mxCell id="cElaBjvzB2i9X2xWvgC5-109" style="edgeStyle=orthogonalEdgeStyle;rounded=0;orthogonalLoop=1;jettySize=auto;html=1;exitX=0.5;exitY=0;exitDx=0;exitDy=0;entryX=0;entryY=0.5;entryDx=0;entryDy=0;" parent="cElaBjvzB2i9X2xWvgC5-32" source="cElaBjvzB2i9X2xWvgC5-88" target="cElaBjvzB2i9X2xWvgC5-120" edge="1">
          <mxGeometry relative="1" as="geometry">
            <mxPoint x="820" y="70" as="targetPoint" />
            <Array as="points">
              <mxPoint x="460" y="70" />
            </Array>
          </mxGeometry>
        </mxCell>
        <mxCell id="cElaBjvzB2i9X2xWvgC5-34" style="edgeStyle=orthogonalEdgeStyle;rounded=0;orthogonalLoop=1;jettySize=auto;html=1;exitX=0.5;exitY=1;exitDx=0;exitDy=0;" parent="1" source="cElaBjvzB2i9X2xWvgC5-20" edge="1">
          <mxGeometry relative="1" as="geometry">
            <mxPoint x="900" y="896" as="targetPoint" />
          </mxGeometry>
        </mxCell>
        <mxCell id="cElaBjvzB2i9X2xWvgC5-43" value="" style="edgeStyle=orthogonalEdgeStyle;rounded=0;orthogonalLoop=1;jettySize=auto;html=1;" parent="1" source="cElaBjvzB2i9X2xWvgC5-38" target="cElaBjvzB2i9X2xWvgC5-42" edge="1">
          <mxGeometry relative="1" as="geometry" />
        </mxCell>
        <mxCell id="cElaBjvzB2i9X2xWvgC5-38" value="Crear Nuevo Usuario" style="whiteSpace=wrap;html=1;rounded=0;fillColor=#0050ef;fontColor=#ffffff;strokeColor=#001DBC;" parent="1" vertex="1">
          <mxGeometry x="470" y="770" width="120" height="60" as="geometry" />
        </mxCell>
        <mxCell id="cElaBjvzB2i9X2xWvgC5-39" value="" style="edgeStyle=orthogonalEdgeStyle;rounded=0;orthogonalLoop=1;jettySize=auto;html=1;" parent="1" source="cElaBjvzB2i9X2xWvgC5-31" target="cElaBjvzB2i9X2xWvgC5-38" edge="1">
          <mxGeometry relative="1" as="geometry">
            <Array as="points">
              <mxPoint x="730" y="800" />
            </Array>
          </mxGeometry>
        </mxCell>
        <mxCell id="cElaBjvzB2i9X2xWvgC5-45" value="" style="edgeStyle=orthogonalEdgeStyle;rounded=0;orthogonalLoop=1;jettySize=auto;html=1;" parent="1" source="cElaBjvzB2i9X2xWvgC5-42" target="cElaBjvzB2i9X2xWvgC5-44" edge="1">
          <mxGeometry relative="1" as="geometry" />
        </mxCell>
        <mxCell id="cElaBjvzB2i9X2xWvgC5-48" value="" style="edgeStyle=orthogonalEdgeStyle;rounded=0;orthogonalLoop=1;jettySize=auto;html=1;" parent="1" source="cElaBjvzB2i9X2xWvgC5-42" target="cElaBjvzB2i9X2xWvgC5-47" edge="1">
          <mxGeometry relative="1" as="geometry">
            <Array as="points">
              <mxPoint x="370" y="640" />
            </Array>
          </mxGeometry>
        </mxCell>
        <mxCell id="cElaBjvzB2i9X2xWvgC5-42" value="" style="rhombus;whiteSpace=wrap;html=1;rounded=0;fillColor=#fad7ac;strokeColor=#b46504;" parent="1" vertex="1">
          <mxGeometry x="330" y="760" width="80" height="80" as="geometry" />
        </mxCell>
        <mxCell id="cElaBjvzB2i9X2xWvgC5-44" value="Se crea Usuario" style="whiteSpace=wrap;html=1;rounded=0;fillColor=#647687;fontColor=#ffffff;strokeColor=#314354;" parent="1" vertex="1">
          <mxGeometry x="120" y="770" width="120" height="60" as="geometry" />
        </mxCell>
        <mxCell id="cElaBjvzB2i9X2xWvgC5-46" value="Admin SI" style="text;html=1;align=center;verticalAlign=middle;whiteSpace=wrap;rounded=0;" parent="1" vertex="1">
          <mxGeometry x="260" y="800" width="60" height="30" as="geometry" />
        </mxCell>
        <mxCell id="cElaBjvzB2i9X2xWvgC5-47" value="No se permite creacion de nuevo Usuario" style="whiteSpace=wrap;html=1;rounded=0;fillColor=#647687;fontColor=#ffffff;strokeColor=#314354;" parent="1" vertex="1">
          <mxGeometry x="120" y="615" width="120" height="60" as="geometry" />
        </mxCell>
        <mxCell id="cElaBjvzB2i9X2xWvgC5-49" value="Admin NO" style="text;html=1;align=center;verticalAlign=middle;whiteSpace=wrap;rounded=0;" parent="1" vertex="1">
          <mxGeometry x="310" y="610" width="60" height="30" as="geometry" />
        </mxCell>
        <mxCell id="cElaBjvzB2i9X2xWvgC5-54" style="edgeStyle=orthogonalEdgeStyle;rounded=0;orthogonalLoop=1;jettySize=auto;html=1;exitX=0;exitY=0.5;exitDx=0;exitDy=0;entryX=0;entryY=0.5;entryDx=0;entryDy=0;dashed=1;" parent="1" source="cElaBjvzB2i9X2xWvgC5-44" target="cElaBjvzB2i9X2xWvgC5-16" edge="1">
          <mxGeometry relative="1" as="geometry" />
        </mxCell>
        <mxCell id="cElaBjvzB2i9X2xWvgC5-57" value="" style="endArrow=none;dashed=1;html=1;dashPattern=1 3;strokeWidth=2;rounded=0;exitX=0.5;exitY=0;exitDx=0;exitDy=0;" parent="1" source="cElaBjvzB2i9X2xWvgC5-47" edge="1">
          <mxGeometry width="50" height="50" relative="1" as="geometry">
            <mxPoint x="620" y="740" as="sourcePoint" />
            <mxPoint x="180" y="530" as="targetPoint" />
            <Array as="points">
              <mxPoint x="180" y="530" />
            </Array>
          </mxGeometry>
        </mxCell>
        <mxCell id="cElaBjvzB2i9X2xWvgC5-58" value="" style="endArrow=none;dashed=1;html=1;dashPattern=1 3;strokeWidth=2;rounded=0;exitX=0.5;exitY=0;exitDx=0;exitDy=0;" parent="1" source="cElaBjvzB2i9X2xWvgC5-36" edge="1">
          <mxGeometry width="50" height="50" relative="1" as="geometry">
            <mxPoint x="620" y="740" as="sourcePoint" />
            <mxPoint x="530" y="530" as="targetPoint" />
          </mxGeometry>
        </mxCell>
        <mxCell id="cElaBjvzB2i9X2xWvgC5-95" value="" style="endArrow=classic;html=1;rounded=0;entryX=0;entryY=0.5;entryDx=0;entryDy=0;" parent="1" target="cElaBjvzB2i9X2xWvgC5-61" edge="1">
          <mxGeometry width="50" height="50" relative="1" as="geometry">
            <mxPoint x="680" y="1130" as="sourcePoint" />
            <mxPoint x="670" y="1280" as="targetPoint" />
          </mxGeometry>
        </mxCell>
        <mxCell id="cElaBjvzB2i9X2xWvgC5-104" style="edgeStyle=orthogonalEdgeStyle;rounded=0;orthogonalLoop=1;jettySize=auto;html=1;exitX=0;exitY=0.5;exitDx=0;exitDy=0;dashed=1;" parent="1" source="cElaBjvzB2i9X2xWvgC5-102" edge="1">
          <mxGeometry relative="1" as="geometry">
            <mxPoint x="280" y="860" as="targetPoint" />
          </mxGeometry>
        </mxCell>
        <mxCell id="cElaBjvzB2i9X2xWvgC5-105" style="edgeStyle=orthogonalEdgeStyle;rounded=0;orthogonalLoop=1;jettySize=auto;html=1;exitX=0.5;exitY=0;exitDx=0;exitDy=0;entryX=0;entryY=0.5;entryDx=0;entryDy=0;dashed=1;" parent="1" source="cElaBjvzB2i9X2xWvgC5-102" target="cElaBjvzB2i9X2xWvgC5-88" edge="1">
          <mxGeometry relative="1" as="geometry" />
        </mxCell>
        <mxCell id="cElaBjvzB2i9X2xWvgC5-102" value="" style="rhombus;whiteSpace=wrap;html=1;rounded=0;fillColor=#fad7ac;strokeColor=#b46504;" parent="1" vertex="1">
          <mxGeometry x="490" y="1570" width="80" height="80" as="geometry" />
        </mxCell>
        <mxCell id="cElaBjvzB2i9X2xWvgC5-103" value="" style="edgeStyle=orthogonalEdgeStyle;rounded=0;orthogonalLoop=1;jettySize=auto;html=1;" parent="1" source="cElaBjvzB2i9X2xWvgC5-87" target="cElaBjvzB2i9X2xWvgC5-102" edge="1">
          <mxGeometry relative="1" as="geometry">
            <Array as="points">
              <mxPoint x="790" y="1670" />
              <mxPoint x="530" y="1670" />
            </Array>
          </mxGeometry>
        </mxCell>
        <mxCell id="cElaBjvzB2i9X2xWvgC5-113" value="Gestion de las mesas del Bar" style="swimlane;whiteSpace=wrap;html=1;fillColor=#a0522d;fontColor=#ffffff;strokeColor=#6D1F00;" parent="1" vertex="1">
          <mxGeometry x="1340" y="900" width="790" height="880" as="geometry" />
        </mxCell>
        <mxCell id="cElaBjvzB2i9X2xWvgC5-130" value="" style="edgeStyle=orthogonalEdgeStyle;rounded=0;orthogonalLoop=1;jettySize=auto;html=1;" parent="cElaBjvzB2i9X2xWvgC5-113" source="cElaBjvzB2i9X2xWvgC5-128" target="cElaBjvzB2i9X2xWvgC5-129" edge="1">
          <mxGeometry relative="1" as="geometry" />
        </mxCell>
        <mxCell id="cElaBjvzB2i9X2xWvgC5-128" value="Escoger Mesa" style="ellipse;whiteSpace=wrap;html=1;fillColor=#1ba1e2;fontColor=#ffffff;strokeColor=#006EAF;" parent="cElaBjvzB2i9X2xWvgC5-113" vertex="1">
          <mxGeometry x="80" y="70" width="120" height="80" as="geometry" />
        </mxCell>
        <mxCell id="cElaBjvzB2i9X2xWvgC5-132" style="edgeStyle=orthogonalEdgeStyle;rounded=0;orthogonalLoop=1;jettySize=auto;html=1;exitX=0.5;exitY=1;exitDx=0;exitDy=0;entryX=0.5;entryY=0;entryDx=0;entryDy=0;" parent="cElaBjvzB2i9X2xWvgC5-113" source="cElaBjvzB2i9X2xWvgC5-129" target="cElaBjvzB2i9X2xWvgC5-131" edge="1">
          <mxGeometry relative="1" as="geometry" />
        </mxCell>
        <mxCell id="cElaBjvzB2i9X2xWvgC5-129" value="Escoger Categoria" style="ellipse;whiteSpace=wrap;html=1;fillColor=#1ba1e2;fontColor=#ffffff;strokeColor=#006EAF;" parent="cElaBjvzB2i9X2xWvgC5-113" vertex="1">
          <mxGeometry x="80" y="230" width="120" height="80" as="geometry" />
        </mxCell>
        <mxCell id="cElaBjvzB2i9X2xWvgC5-137" style="edgeStyle=orthogonalEdgeStyle;rounded=0;orthogonalLoop=1;jettySize=auto;html=1;exitX=0.5;exitY=1;exitDx=0;exitDy=0;entryX=1;entryY=0.5;entryDx=0;entryDy=0;" parent="cElaBjvzB2i9X2xWvgC5-113" source="cElaBjvzB2i9X2xWvgC5-131" target="cElaBjvzB2i9X2xWvgC5-133" edge="1">
          <mxGeometry relative="1" as="geometry" />
        </mxCell>
        <mxCell id="cElaBjvzB2i9X2xWvgC5-138" style="edgeStyle=orthogonalEdgeStyle;rounded=0;orthogonalLoop=1;jettySize=auto;html=1;exitX=0.5;exitY=1;exitDx=0;exitDy=0;entryX=0;entryY=0.5;entryDx=0;entryDy=0;" parent="cElaBjvzB2i9X2xWvgC5-113" source="cElaBjvzB2i9X2xWvgC5-131" target="cElaBjvzB2i9X2xWvgC5-134" edge="1">
          <mxGeometry relative="1" as="geometry" />
        </mxCell>
        <mxCell id="cElaBjvzB2i9X2xWvgC5-141" style="edgeStyle=orthogonalEdgeStyle;rounded=0;orthogonalLoop=1;jettySize=auto;html=1;exitX=0.5;exitY=1;exitDx=0;exitDy=0;" parent="cElaBjvzB2i9X2xWvgC5-113" source="cElaBjvzB2i9X2xWvgC5-131" target="cElaBjvzB2i9X2xWvgC5-140" edge="1">
          <mxGeometry relative="1" as="geometry" />
        </mxCell>
        <mxCell id="cElaBjvzB2i9X2xWvgC5-131" value="Escoger Producto en el ListView" style="whiteSpace=wrap;html=1;aspect=fixed;fillColor=#fa6800;fontColor=#000000;strokeColor=#C73500;" parent="cElaBjvzB2i9X2xWvgC5-113" vertex="1">
          <mxGeometry x="100" y="380" width="80" height="80" as="geometry" />
        </mxCell>
        <mxCell id="cElaBjvzB2i9X2xWvgC5-133" value="Asignar cantidad de Producto" style="shape=hexagon;perimeter=hexagonPerimeter2;whiteSpace=wrap;html=1;fixedSize=1;fillColor=#6a00ff;strokeColor=#3700CC;fontColor=#ffffff;" parent="cElaBjvzB2i9X2xWvgC5-113" vertex="1">
          <mxGeometry x="20" y="520" width="90" height="50" as="geometry" />
        </mxCell>
        <mxCell id="cElaBjvzB2i9X2xWvgC5-134" value="Asignar cantidad de Comensales" style="shape=hexagon;perimeter=hexagonPerimeter2;whiteSpace=wrap;html=1;fixedSize=1;fillColor=#6a00ff;strokeColor=#3700CC;fontColor=#ffffff;" parent="cElaBjvzB2i9X2xWvgC5-113" vertex="1">
          <mxGeometry x="170" y="520" width="90" height="50" as="geometry" />
        </mxCell>
        <mxCell id="cElaBjvzB2i9X2xWvgC5-143" style="edgeStyle=orthogonalEdgeStyle;rounded=0;orthogonalLoop=1;jettySize=auto;html=1;exitX=1;exitY=0.5;exitDx=0;exitDy=0;entryX=0;entryY=0.5;entryDx=0;entryDy=0;" parent="cElaBjvzB2i9X2xWvgC5-113" source="cElaBjvzB2i9X2xWvgC5-140" target="cElaBjvzB2i9X2xWvgC5-142" edge="1">
          <mxGeometry relative="1" as="geometry" />
        </mxCell>
        <mxCell id="cElaBjvzB2i9X2xWvgC5-140" value="Confirmar Comanda" style="rounded=0;whiteSpace=wrap;html=1;fillColor=#0050ef;fontColor=#ffffff;strokeColor=#001DBC;" parent="cElaBjvzB2i9X2xWvgC5-113" vertex="1">
          <mxGeometry x="80" y="650" width="120" height="60" as="geometry" />
        </mxCell>
        <mxCell id="cElaBjvzB2i9X2xWvgC5-146" value="" style="edgeStyle=orthogonalEdgeStyle;rounded=0;orthogonalLoop=1;jettySize=auto;html=1;" parent="cElaBjvzB2i9X2xWvgC5-113" source="cElaBjvzB2i9X2xWvgC5-142" target="cElaBjvzB2i9X2xWvgC5-145" edge="1">
          <mxGeometry relative="1" as="geometry" />
        </mxCell>
        <mxCell id="cElaBjvzB2i9X2xWvgC5-184" style="edgeStyle=orthogonalEdgeStyle;rounded=0;orthogonalLoop=1;jettySize=auto;html=1;exitX=0.5;exitY=0;exitDx=0;exitDy=0;entryX=1;entryY=0.5;entryDx=0;entryDy=0;dashed=1;" parent="cElaBjvzB2i9X2xWvgC5-113" source="cElaBjvzB2i9X2xWvgC5-142" target="cElaBjvzB2i9X2xWvgC5-129" edge="1">
          <mxGeometry relative="1" as="geometry">
            <Array as="points">
              <mxPoint x="330" y="270" />
            </Array>
          </mxGeometry>
        </mxCell>
        <mxCell id="cElaBjvzB2i9X2xWvgC5-142" value="Se rellena el TextArea de la mesa Escogida" style="whiteSpace=wrap;html=1;aspect=fixed;fillColor=#f0a30a;fontColor=#000000;strokeColor=#BD7000;" parent="cElaBjvzB2i9X2xWvgC5-113" vertex="1">
          <mxGeometry x="290" y="640" width="80" height="80" as="geometry" />
        </mxCell>
        <mxCell id="cElaBjvzB2i9X2xWvgC5-157" style="edgeStyle=orthogonalEdgeStyle;rounded=0;orthogonalLoop=1;jettySize=auto;html=1;exitX=0.5;exitY=1;exitDx=0;exitDy=0;entryX=0.5;entryY=1;entryDx=0;entryDy=0;dashed=1;" parent="cElaBjvzB2i9X2xWvgC5-113" source="cElaBjvzB2i9X2xWvgC5-145" target="cElaBjvzB2i9X2xWvgC5-142" edge="1">
          <mxGeometry relative="1" as="geometry">
            <Array as="points">
              <mxPoint x="540" y="790" />
              <mxPoint x="330" y="790" />
            </Array>
          </mxGeometry>
        </mxCell>
        <mxCell id="cElaBjvzB2i9X2xWvgC5-160" style="edgeStyle=orthogonalEdgeStyle;rounded=0;orthogonalLoop=1;jettySize=auto;html=1;exitX=0.5;exitY=0;exitDx=0;exitDy=0;entryX=0.5;entryY=1;entryDx=0;entryDy=0;" parent="cElaBjvzB2i9X2xWvgC5-113" source="cElaBjvzB2i9X2xWvgC5-145" target="cElaBjvzB2i9X2xWvgC5-159" edge="1">
          <mxGeometry relative="1" as="geometry" />
        </mxCell>
        <mxCell id="cElaBjvzB2i9X2xWvgC5-145" value="" style="rhombus;whiteSpace=wrap;html=1;fillColor=#fad7ac;strokeColor=#b46504;" parent="cElaBjvzB2i9X2xWvgC5-113" vertex="1">
          <mxGeometry x="500" y="640" width="80" height="80" as="geometry" />
        </mxCell>
        <mxCell id="cElaBjvzB2i9X2xWvgC5-172" value="" style="edgeStyle=orthogonalEdgeStyle;rounded=0;orthogonalLoop=1;jettySize=auto;html=1;" parent="cElaBjvzB2i9X2xWvgC5-113" source="cElaBjvzB2i9X2xWvgC5-148" target="cElaBjvzB2i9X2xWvgC5-171" edge="1">
          <mxGeometry relative="1" as="geometry" />
        </mxCell>
        <mxCell id="cElaBjvzB2i9X2xWvgC5-148" value="Confirmar pago" style="rounded=0;whiteSpace=wrap;html=1;fillColor=#0050ef;fontColor=#ffffff;strokeColor=#001DBC;" parent="cElaBjvzB2i9X2xWvgC5-113" vertex="1">
          <mxGeometry x="480" y="310" width="120" height="60" as="geometry" />
        </mxCell>
        <mxCell id="cElaBjvzB2i9X2xWvgC5-170" style="edgeStyle=orthogonalEdgeStyle;rounded=0;orthogonalLoop=1;jettySize=auto;html=1;exitX=0.5;exitY=1;exitDx=0;exitDy=0;entryX=0.5;entryY=1;entryDx=0;entryDy=0;dashed=1;" parent="cElaBjvzB2i9X2xWvgC5-113" source="cElaBjvzB2i9X2xWvgC5-147" target="cElaBjvzB2i9X2xWvgC5-142" edge="1">
          <mxGeometry relative="1" as="geometry">
            <Array as="points">
              <mxPoint x="715" y="790" />
              <mxPoint x="330" y="790" />
            </Array>
          </mxGeometry>
        </mxCell>
        <mxCell id="cElaBjvzB2i9X2xWvgC5-147" value="Asignar cantidad de Comensales" style="shape=hexagon;perimeter=hexagonPerimeter2;whiteSpace=wrap;html=1;fixedSize=1;fillColor=#6a00ff;strokeColor=#3700CC;fontColor=#ffffff;" parent="cElaBjvzB2i9X2xWvgC5-113" vertex="1">
          <mxGeometry x="670" y="655" width="90" height="50" as="geometry" />
        </mxCell>
        <mxCell id="cElaBjvzB2i9X2xWvgC5-150" style="edgeStyle=orthogonalEdgeStyle;rounded=0;orthogonalLoop=1;jettySize=auto;html=1;exitX=1;exitY=0.5;exitDx=0;exitDy=0;entryX=0;entryY=0.5;entryDx=0;entryDy=0;" parent="cElaBjvzB2i9X2xWvgC5-113" source="cElaBjvzB2i9X2xWvgC5-145" target="cElaBjvzB2i9X2xWvgC5-147" edge="1">
          <mxGeometry relative="1" as="geometry" />
        </mxCell>
        <mxCell id="cElaBjvzB2i9X2xWvgC5-151" value="Cambiar cantidad de Comensales" style="text;html=1;align=center;verticalAlign=middle;whiteSpace=wrap;rounded=0;" parent="cElaBjvzB2i9X2xWvgC5-113" vertex="1">
          <mxGeometry x="600" y="640" width="60" height="30" as="geometry" />
        </mxCell>
        <mxCell id="cElaBjvzB2i9X2xWvgC5-152" style="edgeStyle=orthogonalEdgeStyle;rounded=0;orthogonalLoop=1;jettySize=auto;html=1;exitX=0.5;exitY=0;exitDx=0;exitDy=0;entryX=0.667;entryY=0.333;entryDx=0;entryDy=0;entryPerimeter=0;" parent="cElaBjvzB2i9X2xWvgC5-113" source="cElaBjvzB2i9X2xWvgC5-151" target="cElaBjvzB2i9X2xWvgC5-151" edge="1">
          <mxGeometry relative="1" as="geometry" />
        </mxCell>
        <mxCell id="cElaBjvzB2i9X2xWvgC5-158" value="Modificar contenido del TextArea" style="text;html=1;align=center;verticalAlign=middle;whiteSpace=wrap;rounded=0;" parent="cElaBjvzB2i9X2xWvgC5-113" vertex="1">
          <mxGeometry x="400" y="750" width="100" height="30" as="geometry" />
        </mxCell>
        <mxCell id="cElaBjvzB2i9X2xWvgC5-161" style="edgeStyle=orthogonalEdgeStyle;rounded=0;orthogonalLoop=1;jettySize=auto;html=1;exitX=0.5;exitY=0;exitDx=0;exitDy=0;entryX=0.5;entryY=1;entryDx=0;entryDy=0;dashed=1;" parent="cElaBjvzB2i9X2xWvgC5-113" source="cElaBjvzB2i9X2xWvgC5-159" target="cElaBjvzB2i9X2xWvgC5-148" edge="1">
          <mxGeometry relative="1" as="geometry" />
        </mxCell>
        <mxCell id="cElaBjvzB2i9X2xWvgC5-165" style="edgeStyle=orthogonalEdgeStyle;rounded=0;orthogonalLoop=1;jettySize=auto;html=1;exitX=0;exitY=0.5;exitDx=0;exitDy=0;entryX=0.5;entryY=1;entryDx=0;entryDy=0;dashed=1;" parent="cElaBjvzB2i9X2xWvgC5-113" source="cElaBjvzB2i9X2xWvgC5-159" target="cElaBjvzB2i9X2xWvgC5-164" edge="1">
          <mxGeometry relative="1" as="geometry" />
        </mxCell>
        <mxCell id="cElaBjvzB2i9X2xWvgC5-159" value="" style="rhombus;whiteSpace=wrap;html=1;fillColor=#fad7ac;strokeColor=#b46504;" parent="cElaBjvzB2i9X2xWvgC5-113" vertex="1">
          <mxGeometry x="500" y="460" width="80" height="80" as="geometry" />
        </mxCell>
        <mxCell id="cElaBjvzB2i9X2xWvgC5-166" style="edgeStyle=orthogonalEdgeStyle;rounded=0;orthogonalLoop=1;jettySize=auto;html=1;exitX=0.5;exitY=0;exitDx=0;exitDy=0;entryX=0;entryY=0.5;entryDx=0;entryDy=0;" parent="cElaBjvzB2i9X2xWvgC5-113" source="cElaBjvzB2i9X2xWvgC5-164" target="cElaBjvzB2i9X2xWvgC5-148" edge="1">
          <mxGeometry relative="1" as="geometry" />
        </mxCell>
        <mxCell id="cElaBjvzB2i9X2xWvgC5-164" value="Imprimir Ticket" style="shape=hexagon;perimeter=hexagonPerimeter2;whiteSpace=wrap;html=1;fixedSize=1;fillColor=#d80073;fontColor=#ffffff;strokeColor=#A50040;" parent="cElaBjvzB2i9X2xWvgC5-113" vertex="1">
          <mxGeometry x="375" y="395" width="90" height="50" as="geometry" />
        </mxCell>
        <mxCell id="cElaBjvzB2i9X2xWvgC5-167" value="SI?" style="text;html=1;align=center;verticalAlign=middle;whiteSpace=wrap;rounded=0;" parent="cElaBjvzB2i9X2xWvgC5-113" vertex="1">
          <mxGeometry x="410" y="470" width="60" height="30" as="geometry" />
        </mxCell>
        <mxCell id="cElaBjvzB2i9X2xWvgC5-168" value="NO?" style="text;html=1;align=center;verticalAlign=middle;whiteSpace=wrap;rounded=0;" parent="cElaBjvzB2i9X2xWvgC5-113" vertex="1">
          <mxGeometry x="540" y="405" width="60" height="30" as="geometry" />
        </mxCell>
        <mxCell id="cElaBjvzB2i9X2xWvgC5-169" value="Se requiere imprimir el Ticket?" style="text;html=1;align=center;verticalAlign=middle;whiteSpace=wrap;rounded=0;" parent="cElaBjvzB2i9X2xWvgC5-113" vertex="1">
          <mxGeometry x="590" y="485" width="110" height="30" as="geometry" />
        </mxCell>
        <mxCell id="cElaBjvzB2i9X2xWvgC5-171" value="Se guardan datos del TicketComanda en BBDD y se vacia de contenido los campos de la Mesa" style="whiteSpace=wrap;html=1;rounded=0;fillColor=#647687;fontColor=#ffffff;strokeColor=#314354;" parent="cElaBjvzB2i9X2xWvgC5-113" vertex="1">
          <mxGeometry x="465" y="150" width="150" height="80" as="geometry" />
        </mxCell>
        <mxCell id="cElaBjvzB2i9X2xWvgC5-186" value="Despues de rellenar el TextArea, añadir mas comandas&amp;nbsp; si es necesario" style="text;html=1;align=center;verticalAlign=middle;whiteSpace=wrap;rounded=0;" parent="cElaBjvzB2i9X2xWvgC5-113" vertex="1">
          <mxGeometry x="220" y="350" width="90" height="30" as="geometry" />
        </mxCell>
        <mxCell id="cElaBjvzB2i9X2xWvgC5-346" style="edgeStyle=orthogonalEdgeStyle;rounded=0;orthogonalLoop=1;jettySize=auto;html=1;exitX=0;exitY=0.5;exitDx=0;exitDy=0;entryX=1;entryY=0.5;entryDx=0;entryDy=0;" parent="cElaBjvzB2i9X2xWvgC5-113" source="cElaBjvzB2i9X2xWvgC5-345" target="cElaBjvzB2i9X2xWvgC5-128" edge="1">
          <mxGeometry relative="1" as="geometry" />
        </mxCell>
        <mxCell id="cElaBjvzB2i9X2xWvgC5-345" value="Seleccion INICIAL en la escena" style="whiteSpace=wrap;html=1;rounded=0;fillColor=#6d8764;fontColor=#ffffff;strokeColor=#3A5431;" parent="cElaBjvzB2i9X2xWvgC5-113" vertex="1">
          <mxGeometry x="280" y="80" width="120" height="60" as="geometry" />
        </mxCell>
        <mxCell id="cElaBjvzB2i9X2xWvgC5-364" value="" style="rhombus;whiteSpace=wrap;html=1;fillColor=#fad7ac;strokeColor=#b46504;" parent="cElaBjvzB2i9X2xWvgC5-113" vertex="1">
          <mxGeometry x="290" y="380" width="80" height="80" as="geometry" />
        </mxCell>
        <mxCell id="cElaBjvzB2i9X2xWvgC5-127" style="edgeStyle=orthogonalEdgeStyle;rounded=0;orthogonalLoop=1;jettySize=auto;html=1;exitX=1;exitY=0.5;exitDx=0;exitDy=0;entryX=0;entryY=0.5;entryDx=0;entryDy=0;" parent="1" source="cElaBjvzB2i9X2xWvgC5-118" target="cElaBjvzB2i9X2xWvgC5-124" edge="1">
          <mxGeometry relative="1" as="geometry" />
        </mxCell>
        <mxCell id="cElaBjvzB2i9X2xWvgC5-118" value="Salir" style="rounded=0;whiteSpace=wrap;html=1;fillColor=#0050ef;fontColor=#ffffff;strokeColor=#001DBC;" parent="1" vertex="1">
          <mxGeometry x="1050" y="230" width="120" height="60" as="geometry" />
        </mxCell>
        <mxCell id="cElaBjvzB2i9X2xWvgC5-125" style="edgeStyle=orthogonalEdgeStyle;rounded=0;orthogonalLoop=1;jettySize=auto;html=1;exitX=1;exitY=0.5;exitDx=0;exitDy=0;" parent="1" source="cElaBjvzB2i9X2xWvgC5-119" target="cElaBjvzB2i9X2xWvgC5-124" edge="1">
          <mxGeometry relative="1" as="geometry" />
        </mxCell>
        <mxCell id="cElaBjvzB2i9X2xWvgC5-119" value="Salir" style="rounded=0;whiteSpace=wrap;html=1;fillColor=#0050ef;fontColor=#ffffff;strokeColor=#001DBC;" parent="1" vertex="1">
          <mxGeometry x="1050" y="640" width="120" height="60" as="geometry" />
        </mxCell>
        <mxCell id="cElaBjvzB2i9X2xWvgC5-339" value="" style="edgeStyle=orthogonalEdgeStyle;rounded=0;orthogonalLoop=1;jettySize=auto;html=1;" parent="1" source="cElaBjvzB2i9X2xWvgC5-120" target="cElaBjvzB2i9X2xWvgC5-338" edge="1">
          <mxGeometry relative="1" as="geometry" />
        </mxCell>
        <mxCell id="cElaBjvzB2i9X2xWvgC5-124" value="FIN" style="rounded=1;whiteSpace=wrap;html=1;fillColor=#a20025;fontColor=#ffffff;strokeColor=#6F0000;" parent="1" vertex="1">
          <mxGeometry x="1290" y="640" width="120" height="60" as="geometry" />
        </mxCell>
        <mxCell id="cElaBjvzB2i9X2xWvgC5-173" value="Datos de los Productos" style="swimlane;whiteSpace=wrap;html=1;fillColor=#a0522d;fontColor=#ffffff;strokeColor=#6D1F00;" parent="1" vertex="1">
          <mxGeometry x="1340" y="1810" width="1210" height="210" as="geometry" />
        </mxCell>
        <mxCell id="cElaBjvzB2i9X2xWvgC5-179" style="edgeStyle=orthogonalEdgeStyle;rounded=0;orthogonalLoop=1;jettySize=auto;html=1;exitX=1;exitY=0.5;exitDx=0;exitDy=0;entryX=0;entryY=0.5;entryDx=0;entryDy=0;" parent="cElaBjvzB2i9X2xWvgC5-173" source="cElaBjvzB2i9X2xWvgC5-176" target="cElaBjvzB2i9X2xWvgC5-177" edge="1">
          <mxGeometry relative="1" as="geometry" />
        </mxCell>
        <mxCell id="cElaBjvzB2i9X2xWvgC5-176" value="Escoger Categoria" style="ellipse;whiteSpace=wrap;html=1;fillColor=#1ba1e2;fontColor=#ffffff;strokeColor=#006EAF;" parent="cElaBjvzB2i9X2xWvgC5-173" vertex="1">
          <mxGeometry x="370" y="70" width="120" height="80" as="geometry" />
        </mxCell>
        <mxCell id="cElaBjvzB2i9X2xWvgC5-180" style="edgeStyle=orthogonalEdgeStyle;rounded=0;orthogonalLoop=1;jettySize=auto;html=1;exitX=1;exitY=0.5;exitDx=0;exitDy=0;entryX=0;entryY=0.5;entryDx=0;entryDy=0;" parent="cElaBjvzB2i9X2xWvgC5-173" source="cElaBjvzB2i9X2xWvgC5-177" target="cElaBjvzB2i9X2xWvgC5-178" edge="1">
          <mxGeometry relative="1" as="geometry" />
        </mxCell>
        <mxCell id="cElaBjvzB2i9X2xWvgC5-177" value="Escoger Producto en el ListView" style="whiteSpace=wrap;html=1;aspect=fixed;fillColor=#fa6800;fontColor=#000000;strokeColor=#C73500;" parent="cElaBjvzB2i9X2xWvgC5-173" vertex="1">
          <mxGeometry x="685" y="70" width="80" height="80" as="geometry" />
        </mxCell>
        <mxCell id="cElaBjvzB2i9X2xWvgC5-178" value="Se rellena el TextArea con los datos del Producto" style="whiteSpace=wrap;html=1;aspect=fixed;fillColor=#f0a30a;fontColor=#000000;strokeColor=#BD7000;" parent="cElaBjvzB2i9X2xWvgC5-173" vertex="1">
          <mxGeometry x="990" y="70" width="80" height="80" as="geometry" />
        </mxCell>
        <mxCell id="cElaBjvzB2i9X2xWvgC5-349" style="edgeStyle=orthogonalEdgeStyle;rounded=0;orthogonalLoop=1;jettySize=auto;html=1;exitX=1;exitY=0.5;exitDx=0;exitDy=0;entryX=0;entryY=0.5;entryDx=0;entryDy=0;" parent="cElaBjvzB2i9X2xWvgC5-173" source="cElaBjvzB2i9X2xWvgC5-347" target="cElaBjvzB2i9X2xWvgC5-176" edge="1">
          <mxGeometry relative="1" as="geometry" />
        </mxCell>
        <mxCell id="cElaBjvzB2i9X2xWvgC5-347" value="Seleccion INICIAL en la escena" style="whiteSpace=wrap;html=1;fillColor=#6d8764;strokeColor=#3A5431;fontColor=#ffffff;" parent="cElaBjvzB2i9X2xWvgC5-173" vertex="1">
          <mxGeometry x="130" y="80" width="120" height="60" as="geometry" />
        </mxCell>
        <mxCell id="cElaBjvzB2i9X2xWvgC5-174" style="edgeStyle=orthogonalEdgeStyle;rounded=0;orthogonalLoop=1;jettySize=auto;html=1;exitX=1;exitY=0.5;exitDx=0;exitDy=0;entryX=0;entryY=0.5;entryDx=0;entryDy=0;" parent="1" source="cElaBjvzB2i9X2xWvgC5-83" target="cElaBjvzB2i9X2xWvgC5-173" edge="1">
          <mxGeometry relative="1" as="geometry">
            <mxPoint x="1310" y="1950" as="targetPoint" />
            <Array as="points">
              <mxPoint x="1260" y="1290" />
              <mxPoint x="1260" y="1915" />
            </Array>
          </mxGeometry>
        </mxCell>
        <mxCell id="cElaBjvzB2i9X2xWvgC5-185" value="" style="endArrow=classic;html=1;rounded=0;entryX=1;entryY=0.5;entryDx=0;entryDy=0;dashed=1;" parent="1" target="cElaBjvzB2i9X2xWvgC5-131" edge="1">
          <mxGeometry width="50" height="50" relative="1" as="geometry">
            <mxPoint x="1670" y="1320" as="sourcePoint" />
            <mxPoint x="1580" y="1320" as="targetPoint" />
          </mxGeometry>
        </mxCell>
        <mxCell id="cElaBjvzB2i9X2xWvgC5-188" value="Añadir o actualizar Productos" style="swimlane;whiteSpace=wrap;html=1;fillColor=#a0522d;fontColor=#ffffff;strokeColor=#6D1F00;" parent="1" vertex="1">
          <mxGeometry x="1340" y="2060" width="1210" height="760" as="geometry" />
        </mxCell>
        <mxCell id="cElaBjvzB2i9X2xWvgC5-193" value="" style="edgeStyle=orthogonalEdgeStyle;rounded=0;orthogonalLoop=1;jettySize=auto;html=1;" parent="cElaBjvzB2i9X2xWvgC5-188" source="cElaBjvzB2i9X2xWvgC5-191" target="cElaBjvzB2i9X2xWvgC5-192" edge="1">
          <mxGeometry relative="1" as="geometry">
            <Array as="points">
              <mxPoint x="90" y="270" />
            </Array>
          </mxGeometry>
        </mxCell>
        <mxCell id="cElaBjvzB2i9X2xWvgC5-198" style="edgeStyle=orthogonalEdgeStyle;rounded=0;orthogonalLoop=1;jettySize=auto;html=1;exitX=0.5;exitY=1;exitDx=0;exitDy=0;entryX=0;entryY=0.5;entryDx=0;entryDy=0;" parent="cElaBjvzB2i9X2xWvgC5-188" source="cElaBjvzB2i9X2xWvgC5-191" target="cElaBjvzB2i9X2xWvgC5-382" edge="1">
          <mxGeometry relative="1" as="geometry">
            <mxPoint x="140" y="340" as="targetPoint" />
          </mxGeometry>
        </mxCell>
        <mxCell id="cElaBjvzB2i9X2xWvgC5-199" style="edgeStyle=orthogonalEdgeStyle;rounded=0;orthogonalLoop=1;jettySize=auto;html=1;exitX=0.5;exitY=1;exitDx=0;exitDy=0;entryX=0;entryY=0.5;entryDx=0;entryDy=0;" parent="cElaBjvzB2i9X2xWvgC5-188" source="cElaBjvzB2i9X2xWvgC5-191" target="cElaBjvzB2i9X2xWvgC5-195" edge="1">
          <mxGeometry relative="1" as="geometry" />
        </mxCell>
        <mxCell id="cElaBjvzB2i9X2xWvgC5-200" style="edgeStyle=orthogonalEdgeStyle;rounded=0;orthogonalLoop=1;jettySize=auto;html=1;exitX=0.5;exitY=1;exitDx=0;exitDy=0;entryX=0;entryY=0.5;entryDx=0;entryDy=0;" parent="cElaBjvzB2i9X2xWvgC5-188" source="cElaBjvzB2i9X2xWvgC5-191" target="cElaBjvzB2i9X2xWvgC5-196" edge="1">
          <mxGeometry relative="1" as="geometry" />
        </mxCell>
        <mxCell id="cElaBjvzB2i9X2xWvgC5-201" style="edgeStyle=orthogonalEdgeStyle;rounded=0;orthogonalLoop=1;jettySize=auto;html=1;exitX=0.5;exitY=1;exitDx=0;exitDy=0;entryX=0;entryY=0.5;entryDx=0;entryDy=0;" parent="cElaBjvzB2i9X2xWvgC5-188" source="cElaBjvzB2i9X2xWvgC5-191" target="cElaBjvzB2i9X2xWvgC5-197" edge="1">
          <mxGeometry relative="1" as="geometry" />
        </mxCell>
        <mxCell id="cElaBjvzB2i9X2xWvgC5-203" style="edgeStyle=orthogonalEdgeStyle;rounded=0;orthogonalLoop=1;jettySize=auto;html=1;exitX=0.5;exitY=1;exitDx=0;exitDy=0;entryX=0;entryY=0.5;entryDx=0;entryDy=0;" parent="cElaBjvzB2i9X2xWvgC5-188" source="cElaBjvzB2i9X2xWvgC5-191" target="cElaBjvzB2i9X2xWvgC5-202" edge="1">
          <mxGeometry relative="1" as="geometry" />
        </mxCell>
        <mxCell id="cElaBjvzB2i9X2xWvgC5-191" value="Escoger Categoria" style="ellipse;whiteSpace=wrap;html=1;fillColor=#1ba1e2;fontColor=#ffffff;strokeColor=#006EAF;" parent="cElaBjvzB2i9X2xWvgC5-188" vertex="1">
          <mxGeometry x="30" y="60" width="120" height="80" as="geometry" />
        </mxCell>
        <mxCell id="cElaBjvzB2i9X2xWvgC5-205" style="edgeStyle=orthogonalEdgeStyle;rounded=0;orthogonalLoop=1;jettySize=auto;html=1;exitX=1;exitY=0.5;exitDx=0;exitDy=0;entryX=0;entryY=0.5;entryDx=0;entryDy=0;" parent="cElaBjvzB2i9X2xWvgC5-188" source="cElaBjvzB2i9X2xWvgC5-192" target="cElaBjvzB2i9X2xWvgC5-204" edge="1">
          <mxGeometry relative="1" as="geometry" />
        </mxCell>
        <mxCell id="cElaBjvzB2i9X2xWvgC5-192" value="Nombre" style="whiteSpace=wrap;html=1;fillColor=#76608a;strokeColor=#432D57;fontColor=#ffffff;" parent="cElaBjvzB2i9X2xWvgC5-188" vertex="1">
          <mxGeometry x="140" y="240" width="120" height="60" as="geometry" />
        </mxCell>
        <mxCell id="cElaBjvzB2i9X2xWvgC5-206" style="edgeStyle=orthogonalEdgeStyle;rounded=0;orthogonalLoop=1;jettySize=auto;html=1;exitX=1;exitY=0.5;exitDx=0;exitDy=0;entryX=0;entryY=0.5;entryDx=0;entryDy=0;" parent="cElaBjvzB2i9X2xWvgC5-188" source="cElaBjvzB2i9X2xWvgC5-382" target="cElaBjvzB2i9X2xWvgC5-204" edge="1">
          <mxGeometry relative="1" as="geometry">
            <mxPoint x="260" y="340" as="sourcePoint" />
            <Array as="points">
              <mxPoint x="300" y="350" />
              <mxPoint x="300" y="410" />
            </Array>
          </mxGeometry>
        </mxCell>
        <mxCell id="cElaBjvzB2i9X2xWvgC5-207" style="edgeStyle=orthogonalEdgeStyle;rounded=0;orthogonalLoop=1;jettySize=auto;html=1;exitX=1;exitY=0.5;exitDx=0;exitDy=0;entryX=0;entryY=0.5;entryDx=0;entryDy=0;" parent="cElaBjvzB2i9X2xWvgC5-188" source="cElaBjvzB2i9X2xWvgC5-195" target="cElaBjvzB2i9X2xWvgC5-204" edge="1">
          <mxGeometry relative="1" as="geometry" />
        </mxCell>
        <mxCell id="cElaBjvzB2i9X2xWvgC5-195" value="Precio" style="whiteSpace=wrap;html=1;fillColor=#76608a;strokeColor=#432D57;fontColor=#ffffff;" parent="cElaBjvzB2i9X2xWvgC5-188" vertex="1">
          <mxGeometry x="140" y="400" width="120" height="60" as="geometry" />
        </mxCell>
        <mxCell id="cElaBjvzB2i9X2xWvgC5-208" style="edgeStyle=orthogonalEdgeStyle;rounded=0;orthogonalLoop=1;jettySize=auto;html=1;exitX=1;exitY=0.5;exitDx=0;exitDy=0;entryX=0;entryY=0.5;entryDx=0;entryDy=0;" parent="cElaBjvzB2i9X2xWvgC5-188" source="cElaBjvzB2i9X2xWvgC5-196" target="cElaBjvzB2i9X2xWvgC5-204" edge="1">
          <mxGeometry relative="1" as="geometry" />
        </mxCell>
        <mxCell id="cElaBjvzB2i9X2xWvgC5-196" value="Tipo placo" style="whiteSpace=wrap;html=1;fillColor=#76608a;strokeColor=#432D57;fontColor=#ffffff;" parent="cElaBjvzB2i9X2xWvgC5-188" vertex="1">
          <mxGeometry x="140" y="470" width="120" height="60" as="geometry" />
        </mxCell>
        <mxCell id="cElaBjvzB2i9X2xWvgC5-209" style="edgeStyle=orthogonalEdgeStyle;rounded=0;orthogonalLoop=1;jettySize=auto;html=1;exitX=1;exitY=0.5;exitDx=0;exitDy=0;entryX=0;entryY=0.5;entryDx=0;entryDy=0;" parent="cElaBjvzB2i9X2xWvgC5-188" source="cElaBjvzB2i9X2xWvgC5-197" target="cElaBjvzB2i9X2xWvgC5-204" edge="1">
          <mxGeometry relative="1" as="geometry" />
        </mxCell>
        <mxCell id="cElaBjvzB2i9X2xWvgC5-197" value="Tipo poción" style="whiteSpace=wrap;html=1;fillColor=#76608a;strokeColor=#432D57;fontColor=#ffffff;" parent="cElaBjvzB2i9X2xWvgC5-188" vertex="1">
          <mxGeometry x="140" y="540" width="120" height="60" as="geometry" />
        </mxCell>
        <mxCell id="cElaBjvzB2i9X2xWvgC5-210" style="edgeStyle=orthogonalEdgeStyle;rounded=0;orthogonalLoop=1;jettySize=auto;html=1;exitX=1;exitY=0.5;exitDx=0;exitDy=0;entryX=0;entryY=0.5;entryDx=0;entryDy=0;" parent="cElaBjvzB2i9X2xWvgC5-188" source="cElaBjvzB2i9X2xWvgC5-202" target="cElaBjvzB2i9X2xWvgC5-204" edge="1">
          <mxGeometry relative="1" as="geometry">
            <Array as="points">
              <mxPoint x="300" y="635" />
              <mxPoint x="300" y="410" />
            </Array>
          </mxGeometry>
        </mxCell>
        <mxCell id="cElaBjvzB2i9X2xWvgC5-202" value="Informacion adicional" style="shape=hexagon;perimeter=hexagonPerimeter2;whiteSpace=wrap;html=1;fixedSize=1;fillColor=#d80073;fontColor=#ffffff;strokeColor=#A50040;" parent="cElaBjvzB2i9X2xWvgC5-188" vertex="1">
          <mxGeometry x="155" y="610" width="90" height="50" as="geometry" />
        </mxCell>
        <mxCell id="cElaBjvzB2i9X2xWvgC5-204" value="Confirmar nuevo plato" style="rounded=0;whiteSpace=wrap;html=1;fillColor=#0050ef;fontColor=#ffffff;strokeColor=#001DBC;" parent="cElaBjvzB2i9X2xWvgC5-188" vertex="1">
          <mxGeometry x="340" y="380" width="120" height="60" as="geometry" />
        </mxCell>
        <mxCell id="cElaBjvzB2i9X2xWvgC5-211" value="" style="endArrow=none;html=1;rounded=0;fillColor=#f8cecc;strokeColor=#b85450;" parent="cElaBjvzB2i9X2xWvgC5-188" edge="1">
          <mxGeometry width="50" height="50" relative="1" as="geometry">
            <mxPoint x="491" y="750" as="sourcePoint" />
            <mxPoint x="491" y="30" as="targetPoint" />
            <Array as="points">
              <mxPoint x="491" y="390" />
            </Array>
          </mxGeometry>
        </mxCell>
        <mxCell id="cElaBjvzB2i9X2xWvgC5-215" value="" style="edgeStyle=orthogonalEdgeStyle;rounded=0;orthogonalLoop=1;jettySize=auto;html=1;" parent="cElaBjvzB2i9X2xWvgC5-188" source="cElaBjvzB2i9X2xWvgC5-212" target="cElaBjvzB2i9X2xWvgC5-214" edge="1">
          <mxGeometry relative="1" as="geometry" />
        </mxCell>
        <mxCell id="cElaBjvzB2i9X2xWvgC5-212" value="Escoger Categoria" style="ellipse;whiteSpace=wrap;html=1;fillColor=#1ba1e2;fontColor=#ffffff;strokeColor=#006EAF;" parent="cElaBjvzB2i9X2xWvgC5-188" vertex="1">
          <mxGeometry x="530" y="60" width="120" height="80" as="geometry" />
        </mxCell>
        <mxCell id="cElaBjvzB2i9X2xWvgC5-213" value="Introducir datos del nuevo Producto" style="text;html=1;align=center;verticalAlign=middle;whiteSpace=wrap;rounded=0;" parent="cElaBjvzB2i9X2xWvgC5-188" vertex="1">
          <mxGeometry x="17" y="350" width="60" height="30" as="geometry" />
        </mxCell>
        <mxCell id="cElaBjvzB2i9X2xWvgC5-217" style="edgeStyle=orthogonalEdgeStyle;rounded=0;orthogonalLoop=1;jettySize=auto;html=1;exitX=1;exitY=0.5;exitDx=0;exitDy=0;entryX=0;entryY=0.5;entryDx=0;entryDy=0;" parent="cElaBjvzB2i9X2xWvgC5-188" source="cElaBjvzB2i9X2xWvgC5-214" target="cElaBjvzB2i9X2xWvgC5-216" edge="1">
          <mxGeometry relative="1" as="geometry" />
        </mxCell>
        <mxCell id="cElaBjvzB2i9X2xWvgC5-239" style="edgeStyle=orthogonalEdgeStyle;rounded=0;orthogonalLoop=1;jettySize=auto;html=1;exitX=0.5;exitY=1;exitDx=0;exitDy=0;entryX=0;entryY=0.5;entryDx=0;entryDy=0;" parent="cElaBjvzB2i9X2xWvgC5-188" source="cElaBjvzB2i9X2xWvgC5-214" target="cElaBjvzB2i9X2xWvgC5-231" edge="1">
          <mxGeometry relative="1" as="geometry">
            <Array as="points">
              <mxPoint x="590" y="750" />
              <mxPoint x="1030" y="750" />
              <mxPoint x="1030" y="490" />
            </Array>
          </mxGeometry>
        </mxCell>
        <mxCell id="cElaBjvzB2i9X2xWvgC5-214" value="Nombre categoria" style="whiteSpace=wrap;html=1;fillColor=#76608a;strokeColor=#432D57;fontColor=#ffffff;" parent="cElaBjvzB2i9X2xWvgC5-188" vertex="1">
          <mxGeometry x="530" y="200" width="120" height="60" as="geometry" />
        </mxCell>
        <mxCell id="cElaBjvzB2i9X2xWvgC5-224" style="edgeStyle=orthogonalEdgeStyle;rounded=0;orthogonalLoop=1;jettySize=auto;html=1;exitX=0.5;exitY=1;exitDx=0;exitDy=0;entryX=0;entryY=0.5;entryDx=0;entryDy=0;" parent="cElaBjvzB2i9X2xWvgC5-188" source="cElaBjvzB2i9X2xWvgC5-216" target="cElaBjvzB2i9X2xWvgC5-218" edge="1">
          <mxGeometry relative="1" as="geometry" />
        </mxCell>
        <mxCell id="cElaBjvzB2i9X2xWvgC5-225" style="edgeStyle=orthogonalEdgeStyle;rounded=0;orthogonalLoop=1;jettySize=auto;html=1;exitX=0.5;exitY=1;exitDx=0;exitDy=0;entryX=0;entryY=0.5;entryDx=0;entryDy=0;" parent="cElaBjvzB2i9X2xWvgC5-188" source="cElaBjvzB2i9X2xWvgC5-216" target="cElaBjvzB2i9X2xWvgC5-383" edge="1">
          <mxGeometry relative="1" as="geometry">
            <mxPoint x="860" y="420" as="targetPoint" />
          </mxGeometry>
        </mxCell>
        <mxCell id="cElaBjvzB2i9X2xWvgC5-226" style="edgeStyle=orthogonalEdgeStyle;rounded=0;orthogonalLoop=1;jettySize=auto;html=1;exitX=0.5;exitY=1;exitDx=0;exitDy=0;entryX=0;entryY=0.5;entryDx=0;entryDy=0;" parent="cElaBjvzB2i9X2xWvgC5-188" source="cElaBjvzB2i9X2xWvgC5-216" target="cElaBjvzB2i9X2xWvgC5-220" edge="1">
          <mxGeometry relative="1" as="geometry" />
        </mxCell>
        <mxCell id="cElaBjvzB2i9X2xWvgC5-227" style="edgeStyle=orthogonalEdgeStyle;rounded=0;orthogonalLoop=1;jettySize=auto;html=1;exitX=0.5;exitY=1;exitDx=0;exitDy=0;entryX=0;entryY=0.5;entryDx=0;entryDy=0;" parent="cElaBjvzB2i9X2xWvgC5-188" source="cElaBjvzB2i9X2xWvgC5-216" target="cElaBjvzB2i9X2xWvgC5-221" edge="1">
          <mxGeometry relative="1" as="geometry" />
        </mxCell>
        <mxCell id="cElaBjvzB2i9X2xWvgC5-228" style="edgeStyle=orthogonalEdgeStyle;rounded=0;orthogonalLoop=1;jettySize=auto;html=1;exitX=0.5;exitY=1;exitDx=0;exitDy=0;entryX=0;entryY=0.5;entryDx=0;entryDy=0;" parent="cElaBjvzB2i9X2xWvgC5-188" source="cElaBjvzB2i9X2xWvgC5-216" target="cElaBjvzB2i9X2xWvgC5-222" edge="1">
          <mxGeometry relative="1" as="geometry" />
        </mxCell>
        <mxCell id="cElaBjvzB2i9X2xWvgC5-229" style="edgeStyle=orthogonalEdgeStyle;rounded=0;orthogonalLoop=1;jettySize=auto;html=1;exitX=0.5;exitY=1;exitDx=0;exitDy=0;entryX=0;entryY=0.5;entryDx=0;entryDy=0;" parent="cElaBjvzB2i9X2xWvgC5-188" source="cElaBjvzB2i9X2xWvgC5-216" target="cElaBjvzB2i9X2xWvgC5-223" edge="1">
          <mxGeometry relative="1" as="geometry" />
        </mxCell>
        <mxCell id="cElaBjvzB2i9X2xWvgC5-216" value="Escoger Producto" style="ellipse;whiteSpace=wrap;html=1;fillColor=#1ba1e2;fontColor=#ffffff;strokeColor=#006EAF;" parent="cElaBjvzB2i9X2xWvgC5-188" vertex="1">
          <mxGeometry x="740" y="190" width="120" height="80" as="geometry" />
        </mxCell>
        <mxCell id="cElaBjvzB2i9X2xWvgC5-232" style="edgeStyle=orthogonalEdgeStyle;rounded=0;orthogonalLoop=1;jettySize=auto;html=1;exitX=1;exitY=0.5;exitDx=0;exitDy=0;entryX=0;entryY=0.5;entryDx=0;entryDy=0;" parent="cElaBjvzB2i9X2xWvgC5-188" source="cElaBjvzB2i9X2xWvgC5-218" target="cElaBjvzB2i9X2xWvgC5-231" edge="1">
          <mxGeometry relative="1" as="geometry" />
        </mxCell>
        <mxCell id="cElaBjvzB2i9X2xWvgC5-218" value="Nombre" style="whiteSpace=wrap;html=1;fillColor=#76608a;strokeColor=#432D57;fontColor=#ffffff;" parent="cElaBjvzB2i9X2xWvgC5-188" vertex="1">
          <mxGeometry x="860" y="320" width="120" height="60" as="geometry" />
        </mxCell>
        <mxCell id="cElaBjvzB2i9X2xWvgC5-233" style="edgeStyle=orthogonalEdgeStyle;rounded=0;orthogonalLoop=1;jettySize=auto;html=1;exitX=1;exitY=0.5;exitDx=0;exitDy=0;entryX=0;entryY=0.5;entryDx=0;entryDy=0;" parent="cElaBjvzB2i9X2xWvgC5-188" source="cElaBjvzB2i9X2xWvgC5-383" target="cElaBjvzB2i9X2xWvgC5-231" edge="1">
          <mxGeometry relative="1" as="geometry">
            <mxPoint x="980" y="420" as="sourcePoint" />
            <Array as="points">
              <mxPoint x="1030" y="430" />
              <mxPoint x="1030" y="490" />
            </Array>
          </mxGeometry>
        </mxCell>
        <mxCell id="cElaBjvzB2i9X2xWvgC5-234" style="edgeStyle=orthogonalEdgeStyle;rounded=0;orthogonalLoop=1;jettySize=auto;html=1;exitX=1;exitY=0.5;exitDx=0;exitDy=0;entryX=0;entryY=0.5;entryDx=0;entryDy=0;" parent="cElaBjvzB2i9X2xWvgC5-188" source="cElaBjvzB2i9X2xWvgC5-220" target="cElaBjvzB2i9X2xWvgC5-231" edge="1">
          <mxGeometry relative="1" as="geometry" />
        </mxCell>
        <mxCell id="cElaBjvzB2i9X2xWvgC5-220" value="Precio" style="whiteSpace=wrap;html=1;fillColor=#76608a;strokeColor=#432D57;fontColor=#ffffff;" parent="cElaBjvzB2i9X2xWvgC5-188" vertex="1">
          <mxGeometry x="860" y="480" width="120" height="60" as="geometry" />
        </mxCell>
        <mxCell id="cElaBjvzB2i9X2xWvgC5-235" style="edgeStyle=orthogonalEdgeStyle;rounded=0;orthogonalLoop=1;jettySize=auto;html=1;exitX=1;exitY=0.5;exitDx=0;exitDy=0;entryX=0;entryY=0.5;entryDx=0;entryDy=0;" parent="cElaBjvzB2i9X2xWvgC5-188" source="cElaBjvzB2i9X2xWvgC5-221" target="cElaBjvzB2i9X2xWvgC5-231" edge="1">
          <mxGeometry relative="1" as="geometry" />
        </mxCell>
        <mxCell id="cElaBjvzB2i9X2xWvgC5-221" value="Tipo placo" style="whiteSpace=wrap;html=1;fillColor=#76608a;strokeColor=#432D57;fontColor=#ffffff;" parent="cElaBjvzB2i9X2xWvgC5-188" vertex="1">
          <mxGeometry x="860" y="550" width="120" height="60" as="geometry" />
        </mxCell>
        <mxCell id="cElaBjvzB2i9X2xWvgC5-236" style="edgeStyle=orthogonalEdgeStyle;rounded=0;orthogonalLoop=1;jettySize=auto;html=1;exitX=1;exitY=0.5;exitDx=0;exitDy=0;entryX=0;entryY=0.5;entryDx=0;entryDy=0;" parent="cElaBjvzB2i9X2xWvgC5-188" source="cElaBjvzB2i9X2xWvgC5-222" target="cElaBjvzB2i9X2xWvgC5-231" edge="1">
          <mxGeometry relative="1" as="geometry" />
        </mxCell>
        <mxCell id="cElaBjvzB2i9X2xWvgC5-222" value="Tipo poción" style="whiteSpace=wrap;html=1;fillColor=#76608a;strokeColor=#432D57;fontColor=#ffffff;" parent="cElaBjvzB2i9X2xWvgC5-188" vertex="1">
          <mxGeometry x="860" y="620" width="120" height="60" as="geometry" />
        </mxCell>
        <mxCell id="cElaBjvzB2i9X2xWvgC5-237" style="edgeStyle=orthogonalEdgeStyle;rounded=0;orthogonalLoop=1;jettySize=auto;html=1;exitX=1;exitY=0.5;exitDx=0;exitDy=0;" parent="cElaBjvzB2i9X2xWvgC5-188" source="cElaBjvzB2i9X2xWvgC5-223" edge="1">
          <mxGeometry relative="1" as="geometry">
            <mxPoint x="1080" y="490" as="targetPoint" />
            <Array as="points">
              <mxPoint x="1030" y="715" />
              <mxPoint x="1030" y="490" />
            </Array>
          </mxGeometry>
        </mxCell>
        <mxCell id="cElaBjvzB2i9X2xWvgC5-223" value="Informacion adicional" style="shape=hexagon;perimeter=hexagonPerimeter2;whiteSpace=wrap;html=1;fixedSize=1;fillColor=#d80073;fontColor=#ffffff;strokeColor=#A50040;" parent="cElaBjvzB2i9X2xWvgC5-188" vertex="1">
          <mxGeometry x="875" y="690" width="90" height="50" as="geometry" />
        </mxCell>
        <mxCell id="cElaBjvzB2i9X2xWvgC5-230" value="Se rellenan los campos en la escena con los datos del Producto" style="text;html=1;align=center;verticalAlign=middle;whiteSpace=wrap;rounded=0;" parent="cElaBjvzB2i9X2xWvgC5-188" vertex="1">
          <mxGeometry x="660" y="410" width="130" height="30" as="geometry" />
        </mxCell>
        <mxCell id="cElaBjvzB2i9X2xWvgC5-231" value="Confirmar actualizacion datos plato" style="rounded=0;whiteSpace=wrap;html=1;fillColor=#0050ef;fontColor=#ffffff;strokeColor=#001DBC;" parent="cElaBjvzB2i9X2xWvgC5-188" vertex="1">
          <mxGeometry x="1080" y="460" width="120" height="60" as="geometry" />
        </mxCell>
        <mxCell id="cElaBjvzB2i9X2xWvgC5-240" value="Limpiar campos" style="rounded=0;whiteSpace=wrap;html=1;fillColor=#0050ef;fontColor=#ffffff;strokeColor=#001DBC;" parent="cElaBjvzB2i9X2xWvgC5-188" vertex="1">
          <mxGeometry x="1080" y="60" width="120" height="60" as="geometry" />
        </mxCell>
        <mxCell id="cElaBjvzB2i9X2xWvgC5-241" value="Resetea el contenido de todos los campos" style="text;html=1;align=center;verticalAlign=middle;whiteSpace=wrap;rounded=0;" parent="cElaBjvzB2i9X2xWvgC5-188" vertex="1">
          <mxGeometry x="1085" y="130" width="110" height="30" as="geometry" />
        </mxCell>
        <mxCell id="cElaBjvzB2i9X2xWvgC5-242" value="" style="shape=flexArrow;endArrow=classic;html=1;rounded=0;exitX=0;exitY=1;exitDx=0;exitDy=0;" parent="cElaBjvzB2i9X2xWvgC5-188" source="cElaBjvzB2i9X2xWvgC5-240" edge="1">
          <mxGeometry width="50" height="50" relative="1" as="geometry">
            <mxPoint x="1050" y="140" as="sourcePoint" />
            <mxPoint x="1050" y="150" as="targetPoint" />
          </mxGeometry>
        </mxCell>
        <mxCell id="cElaBjvzB2i9X2xWvgC5-245" value="Se rellena el Texfield con la Categoria escogida" style="text;html=1;align=center;verticalAlign=middle;whiteSpace=wrap;rounded=0;" parent="cElaBjvzB2i9X2xWvgC5-188" vertex="1">
          <mxGeometry x="600" y="160" width="140" height="30" as="geometry" />
        </mxCell>
        <mxCell id="cElaBjvzB2i9X2xWvgC5-246" value="Actualizar valores segun conveniencia" style="text;html=1;align=center;verticalAlign=middle;whiteSpace=wrap;rounded=0;" parent="cElaBjvzB2i9X2xWvgC5-188" vertex="1">
          <mxGeometry x="1030" y="380" width="110" height="30" as="geometry" />
        </mxCell>
        <mxCell id="cElaBjvzB2i9X2xWvgC5-247" value="Actualizar Categoria o bien dejarla como esta, segun se requiera." style="text;html=1;align=center;verticalAlign=middle;whiteSpace=wrap;rounded=0;" parent="cElaBjvzB2i9X2xWvgC5-188" vertex="1">
          <mxGeometry x="600" y="615" width="130" height="30" as="geometry" />
        </mxCell>
        <mxCell id="cElaBjvzB2i9X2xWvgC5-351" style="edgeStyle=orthogonalEdgeStyle;rounded=0;orthogonalLoop=1;jettySize=auto;html=1;exitX=0;exitY=0.5;exitDx=0;exitDy=0;entryX=1;entryY=0.5;entryDx=0;entryDy=0;" parent="cElaBjvzB2i9X2xWvgC5-188" source="cElaBjvzB2i9X2xWvgC5-350" target="cElaBjvzB2i9X2xWvgC5-191" edge="1">
          <mxGeometry relative="1" as="geometry" />
        </mxCell>
        <mxCell id="cElaBjvzB2i9X2xWvgC5-352" style="edgeStyle=orthogonalEdgeStyle;rounded=0;orthogonalLoop=1;jettySize=auto;html=1;exitX=1;exitY=0.5;exitDx=0;exitDy=0;entryX=0;entryY=0.5;entryDx=0;entryDy=0;" parent="cElaBjvzB2i9X2xWvgC5-188" source="cElaBjvzB2i9X2xWvgC5-350" target="cElaBjvzB2i9X2xWvgC5-212" edge="1">
          <mxGeometry relative="1" as="geometry" />
        </mxCell>
        <mxCell id="cElaBjvzB2i9X2xWvgC5-350" value="Seleccion INICIAL en la escena" style="whiteSpace=wrap;html=1;fillColor=#6d8764;strokeColor=#3A5431;fontColor=#ffffff;" parent="cElaBjvzB2i9X2xWvgC5-188" vertex="1">
          <mxGeometry x="280" y="70" width="120" height="60" as="geometry" />
        </mxCell>
        <mxCell id="cElaBjvzB2i9X2xWvgC5-382" value="Descripcion" style="whiteSpace=wrap;html=1;aspect=fixed;fillColor=#f0a30a;fontColor=#000000;strokeColor=#BD7000;" parent="cElaBjvzB2i9X2xWvgC5-188" vertex="1">
          <mxGeometry x="160" y="310" width="80" height="80" as="geometry" />
        </mxCell>
        <mxCell id="cElaBjvzB2i9X2xWvgC5-383" value="Descripcion" style="whiteSpace=wrap;html=1;aspect=fixed;fillColor=#f0a30a;fontColor=#000000;strokeColor=#BD7000;" parent="cElaBjvzB2i9X2xWvgC5-188" vertex="1">
          <mxGeometry x="880" y="390" width="80" height="80" as="geometry" />
        </mxCell>
        <mxCell id="cElaBjvzB2i9X2xWvgC5-189" style="edgeStyle=orthogonalEdgeStyle;rounded=0;orthogonalLoop=1;jettySize=auto;html=1;exitX=1;exitY=0.5;exitDx=0;exitDy=0;" parent="1" source="cElaBjvzB2i9X2xWvgC5-84" edge="1">
          <mxGeometry relative="1" as="geometry">
            <mxPoint x="1330" y="2355" as="targetPoint" />
            <Array as="points">
              <mxPoint x="1230" y="1370" />
              <mxPoint x="1230" y="2355" />
            </Array>
          </mxGeometry>
        </mxCell>
        <mxCell id="cElaBjvzB2i9X2xWvgC5-248" value="Detalles de Comandas y Ticket segun Dia" style="swimlane;whiteSpace=wrap;html=1;fillColor=#a0522d;fontColor=#ffffff;strokeColor=#6D1F00;" parent="1" vertex="1">
          <mxGeometry x="1340" y="2860" width="950" height="600" as="geometry" />
        </mxCell>
        <mxCell id="cElaBjvzB2i9X2xWvgC5-255" style="edgeStyle=orthogonalEdgeStyle;rounded=0;orthogonalLoop=1;jettySize=auto;html=1;exitX=0.5;exitY=1;exitDx=0;exitDy=0;" parent="cElaBjvzB2i9X2xWvgC5-248" source="cElaBjvzB2i9X2xWvgC5-251" target="cElaBjvzB2i9X2xWvgC5-252" edge="1">
          <mxGeometry relative="1" as="geometry" />
        </mxCell>
        <mxCell id="cElaBjvzB2i9X2xWvgC5-257" style="edgeStyle=orthogonalEdgeStyle;rounded=0;orthogonalLoop=1;jettySize=auto;html=1;exitX=0.5;exitY=1;exitDx=0;exitDy=0;entryX=0.5;entryY=0;entryDx=0;entryDy=0;" parent="cElaBjvzB2i9X2xWvgC5-248" source="cElaBjvzB2i9X2xWvgC5-251" target="cElaBjvzB2i9X2xWvgC5-253" edge="1">
          <mxGeometry relative="1" as="geometry" />
        </mxCell>
        <mxCell id="cElaBjvzB2i9X2xWvgC5-258" style="edgeStyle=orthogonalEdgeStyle;rounded=0;orthogonalLoop=1;jettySize=auto;html=1;exitX=0.5;exitY=1;exitDx=0;exitDy=0;" parent="cElaBjvzB2i9X2xWvgC5-248" source="cElaBjvzB2i9X2xWvgC5-251" target="cElaBjvzB2i9X2xWvgC5-254" edge="1">
          <mxGeometry relative="1" as="geometry" />
        </mxCell>
        <mxCell id="cElaBjvzB2i9X2xWvgC5-265" style="edgeStyle=orthogonalEdgeStyle;rounded=0;orthogonalLoop=1;jettySize=auto;html=1;exitX=1;exitY=0.5;exitDx=0;exitDy=0;entryX=0;entryY=0.5;entryDx=0;entryDy=0;" parent="cElaBjvzB2i9X2xWvgC5-248" source="cElaBjvzB2i9X2xWvgC5-251" target="cElaBjvzB2i9X2xWvgC5-259" edge="1">
          <mxGeometry relative="1" as="geometry" />
        </mxCell>
        <mxCell id="cElaBjvzB2i9X2xWvgC5-266" style="edgeStyle=orthogonalEdgeStyle;rounded=0;orthogonalLoop=1;jettySize=auto;html=1;exitX=1;exitY=0.5;exitDx=0;exitDy=0;entryX=0;entryY=0.5;entryDx=0;entryDy=0;" parent="cElaBjvzB2i9X2xWvgC5-248" source="cElaBjvzB2i9X2xWvgC5-251" target="cElaBjvzB2i9X2xWvgC5-260" edge="1">
          <mxGeometry relative="1" as="geometry">
            <Array as="points">
              <mxPoint x="580" y="200" />
              <mxPoint x="580" y="270" />
            </Array>
          </mxGeometry>
        </mxCell>
        <mxCell id="cElaBjvzB2i9X2xWvgC5-267" style="edgeStyle=orthogonalEdgeStyle;rounded=0;orthogonalLoop=1;jettySize=auto;html=1;exitX=1;exitY=0.5;exitDx=0;exitDy=0;entryX=0;entryY=0.5;entryDx=0;entryDy=0;" parent="cElaBjvzB2i9X2xWvgC5-248" source="cElaBjvzB2i9X2xWvgC5-251" target="cElaBjvzB2i9X2xWvgC5-261" edge="1">
          <mxGeometry relative="1" as="geometry">
            <Array as="points">
              <mxPoint x="580" y="200" />
              <mxPoint x="580" y="340" />
            </Array>
          </mxGeometry>
        </mxCell>
        <mxCell id="cElaBjvzB2i9X2xWvgC5-271" style="edgeStyle=orthogonalEdgeStyle;rounded=0;orthogonalLoop=1;jettySize=auto;html=1;exitX=0;exitY=0.5;exitDx=0;exitDy=0;entryX=0;entryY=0.5;entryDx=0;entryDy=0;" parent="cElaBjvzB2i9X2xWvgC5-248" source="cElaBjvzB2i9X2xWvgC5-251" target="cElaBjvzB2i9X2xWvgC5-263" edge="1">
          <mxGeometry relative="1" as="geometry" />
        </mxCell>
        <mxCell id="cElaBjvzB2i9X2xWvgC5-251" value="Escoger dia en el DatePicker" style="shape=process;whiteSpace=wrap;html=1;backgroundOutline=1;fillColor=#fad9d5;strokeColor=#ae4132;labelBackgroundColor=default;" parent="cElaBjvzB2i9X2xWvgC5-248" vertex="1">
          <mxGeometry x="80" y="170" width="120" height="60" as="geometry" />
        </mxCell>
        <mxCell id="cElaBjvzB2i9X2xWvgC5-252" value="Listado de TicketComanda" style="whiteSpace=wrap;html=1;aspect=fixed;fillColor=#fa6800;fontColor=#000000;strokeColor=#C73500;" parent="cElaBjvzB2i9X2xWvgC5-248" vertex="1">
          <mxGeometry x="95" y="340" width="90" height="90" as="geometry" />
        </mxCell>
        <mxCell id="cElaBjvzB2i9X2xWvgC5-253" value="Listado de Productos mas vendidos (dia)" style="whiteSpace=wrap;html=1;aspect=fixed;fillColor=#fa6800;fontColor=#000000;strokeColor=#C73500;" parent="cElaBjvzB2i9X2xWvgC5-248" vertex="1">
          <mxGeometry x="260" y="340" width="90" height="90" as="geometry" />
        </mxCell>
        <mxCell id="cElaBjvzB2i9X2xWvgC5-254" value="Listado de Productos mas vendidos (mes)" style="whiteSpace=wrap;html=1;aspect=fixed;fillColor=#fa6800;fontColor=#000000;strokeColor=#C73500;" parent="cElaBjvzB2i9X2xWvgC5-248" vertex="1">
          <mxGeometry x="430" y="340" width="90" height="90" as="geometry" />
        </mxCell>
        <mxCell id="cElaBjvzB2i9X2xWvgC5-259" value="Total importe SIN IVA (dia)" style="whiteSpace=wrap;html=1;fillColor=#76608a;strokeColor=#432D57;fontColor=#ffffff;" parent="cElaBjvzB2i9X2xWvgC5-248" vertex="1">
          <mxGeometry x="670" y="170" width="120" height="60" as="geometry" />
        </mxCell>
        <mxCell id="cElaBjvzB2i9X2xWvgC5-260" value="Total importe CON IVA (dia)" style="whiteSpace=wrap;html=1;fillColor=#76608a;strokeColor=#432D57;fontColor=#ffffff;" parent="cElaBjvzB2i9X2xWvgC5-248" vertex="1">
          <mxGeometry x="670" y="240" width="120" height="60" as="geometry" />
        </mxCell>
        <mxCell id="cElaBjvzB2i9X2xWvgC5-261" value="Total comensales (dia)" style="whiteSpace=wrap;html=1;fillColor=#76608a;strokeColor=#432D57;fontColor=#ffffff;" parent="cElaBjvzB2i9X2xWvgC5-248" vertex="1">
          <mxGeometry x="670" y="310" width="120" height="60" as="geometry" />
        </mxCell>
        <mxCell id="cElaBjvzB2i9X2xWvgC5-262" value="Total importe SIN IVA (mes)" style="whiteSpace=wrap;html=1;fillColor=#76608a;strokeColor=#432D57;fontColor=#ffffff;" parent="cElaBjvzB2i9X2xWvgC5-248" vertex="1">
          <mxGeometry x="670" y="400" width="120" height="60" as="geometry" />
        </mxCell>
        <mxCell id="cElaBjvzB2i9X2xWvgC5-263" value="Total importe CON IVA (mes)" style="whiteSpace=wrap;html=1;fillColor=#76608a;strokeColor=#432D57;fontColor=#ffffff;" parent="cElaBjvzB2i9X2xWvgC5-248" vertex="1">
          <mxGeometry x="670" y="470" width="120" height="60" as="geometry" />
        </mxCell>
        <mxCell id="cElaBjvzB2i9X2xWvgC5-264" value="Total comensales (mes)" style="whiteSpace=wrap;html=1;fillColor=#76608a;strokeColor=#432D57;fontColor=#ffffff;" parent="cElaBjvzB2i9X2xWvgC5-248" vertex="1">
          <mxGeometry x="670" y="540" width="120" height="60" as="geometry" />
        </mxCell>
        <mxCell id="cElaBjvzB2i9X2xWvgC5-272" value="" style="endArrow=classic;html=1;rounded=0;entryX=0;entryY=0.5;entryDx=0;entryDy=0;" parent="cElaBjvzB2i9X2xWvgC5-248" target="cElaBjvzB2i9X2xWvgC5-262" edge="1">
          <mxGeometry width="50" height="50" relative="1" as="geometry">
            <mxPoint x="580" y="500" as="sourcePoint" />
            <mxPoint x="620" y="420" as="targetPoint" />
            <Array as="points">
              <mxPoint x="580" y="430" />
            </Array>
          </mxGeometry>
        </mxCell>
        <mxCell id="cElaBjvzB2i9X2xWvgC5-273" value="" style="endArrow=classic;html=1;rounded=0;entryX=0;entryY=0.5;entryDx=0;entryDy=0;" parent="cElaBjvzB2i9X2xWvgC5-248" target="cElaBjvzB2i9X2xWvgC5-264" edge="1">
          <mxGeometry width="50" height="50" relative="1" as="geometry">
            <mxPoint x="580" y="500" as="sourcePoint" />
            <mxPoint x="680" y="440" as="targetPoint" />
            <Array as="points">
              <mxPoint x="580" y="570" />
            </Array>
          </mxGeometry>
        </mxCell>
        <mxCell id="cElaBjvzB2i9X2xWvgC5-354" style="edgeStyle=orthogonalEdgeStyle;rounded=0;orthogonalLoop=1;jettySize=auto;html=1;exitX=0.5;exitY=1;exitDx=0;exitDy=0;entryX=0.5;entryY=0;entryDx=0;entryDy=0;" parent="cElaBjvzB2i9X2xWvgC5-248" source="cElaBjvzB2i9X2xWvgC5-353" target="cElaBjvzB2i9X2xWvgC5-251" edge="1">
          <mxGeometry relative="1" as="geometry" />
        </mxCell>
        <mxCell id="cElaBjvzB2i9X2xWvgC5-353" value="Seleccion INICIAL en la escena" style="whiteSpace=wrap;html=1;fillColor=#6d8764;strokeColor=#3A5431;fontColor=#ffffff;" parent="cElaBjvzB2i9X2xWvgC5-248" vertex="1">
          <mxGeometry x="80" y="33" width="120" height="60" as="geometry" />
        </mxCell>
        <mxCell id="cElaBjvzB2i9X2xWvgC5-249" style="edgeStyle=orthogonalEdgeStyle;rounded=0;orthogonalLoop=1;jettySize=auto;html=1;exitX=1;exitY=0.5;exitDx=0;exitDy=0;entryX=0;entryY=0.5;entryDx=0;entryDy=0;" parent="1" source="cElaBjvzB2i9X2xWvgC5-85" target="cElaBjvzB2i9X2xWvgC5-248" edge="1">
          <mxGeometry relative="1" as="geometry">
            <Array as="points">
              <mxPoint x="1200" y="1450" />
              <mxPoint x="1200" y="3160" />
            </Array>
          </mxGeometry>
        </mxCell>
        <mxCell id="cElaBjvzB2i9X2xWvgC5-274" value="Escena con opciones Administrativas" style="swimlane;whiteSpace=wrap;html=1;startSize=23;fillColor=#a0522d;fontColor=#ffffff;strokeColor=#6D1F00;" parent="1" vertex="1">
          <mxGeometry x="50" y="1760" width="1130" height="930" as="geometry" />
        </mxCell>
        <mxCell id="cElaBjvzB2i9X2xWvgC5-280" value="" style="edgeStyle=orthogonalEdgeStyle;rounded=0;orthogonalLoop=1;jettySize=auto;html=1;" parent="cElaBjvzB2i9X2xWvgC5-274" source="cElaBjvzB2i9X2xWvgC5-278" target="cElaBjvzB2i9X2xWvgC5-279" edge="1">
          <mxGeometry relative="1" as="geometry" />
        </mxCell>
        <mxCell id="cElaBjvzB2i9X2xWvgC5-278" value="Nombre" style="whiteSpace=wrap;html=1;fillColor=#76608a;strokeColor=#432D57;fontColor=#ffffff;" parent="cElaBjvzB2i9X2xWvgC5-274" vertex="1">
          <mxGeometry x="240" y="70" width="120" height="60" as="geometry" />
        </mxCell>
        <mxCell id="cElaBjvzB2i9X2xWvgC5-279" value="Cofirmar nueva Categoria" style="whiteSpace=wrap;html=1;fillColor=#0050ef;strokeColor=#001DBC;fontColor=#ffffff;" parent="cElaBjvzB2i9X2xWvgC5-274" vertex="1">
          <mxGeometry x="440" y="70" width="120" height="60" as="geometry" />
        </mxCell>
        <mxCell id="cElaBjvzB2i9X2xWvgC5-283" value="" style="edgeStyle=orthogonalEdgeStyle;rounded=0;orthogonalLoop=1;jettySize=auto;html=1;" parent="cElaBjvzB2i9X2xWvgC5-274" source="cElaBjvzB2i9X2xWvgC5-281" target="cElaBjvzB2i9X2xWvgC5-282" edge="1">
          <mxGeometry relative="1" as="geometry" />
        </mxCell>
        <mxCell id="cElaBjvzB2i9X2xWvgC5-281" value="Escoger Categoria" style="ellipse;whiteSpace=wrap;html=1;fillColor=#1ba1e2;fontColor=#ffffff;strokeColor=#006EAF;" parent="cElaBjvzB2i9X2xWvgC5-274" vertex="1">
          <mxGeometry x="240" y="160" width="120" height="80" as="geometry" />
        </mxCell>
        <mxCell id="cElaBjvzB2i9X2xWvgC5-285" value="" style="edgeStyle=orthogonalEdgeStyle;rounded=0;orthogonalLoop=1;jettySize=auto;html=1;" parent="cElaBjvzB2i9X2xWvgC5-274" source="cElaBjvzB2i9X2xWvgC5-282" target="cElaBjvzB2i9X2xWvgC5-284" edge="1">
          <mxGeometry relative="1" as="geometry" />
        </mxCell>
        <mxCell id="cElaBjvzB2i9X2xWvgC5-282" value="Nombre" style="whiteSpace=wrap;html=1;fillColor=#76608a;strokeColor=#432D57;fontColor=#ffffff;" parent="cElaBjvzB2i9X2xWvgC5-274" vertex="1">
          <mxGeometry x="440" y="170" width="120" height="60" as="geometry" />
        </mxCell>
        <mxCell id="cElaBjvzB2i9X2xWvgC5-284" value="Confirmar actualizacion del nombre de la Categoria" style="whiteSpace=wrap;html=1;fillColor=#0050ef;strokeColor=#001DBC;fontColor=#ffffff;" parent="cElaBjvzB2i9X2xWvgC5-274" vertex="1">
          <mxGeometry x="640" y="170" width="120" height="60" as="geometry" />
        </mxCell>
        <mxCell id="cElaBjvzB2i9X2xWvgC5-288" value="" style="edgeStyle=orthogonalEdgeStyle;rounded=0;orthogonalLoop=1;jettySize=auto;html=1;" parent="cElaBjvzB2i9X2xWvgC5-274" source="cElaBjvzB2i9X2xWvgC5-286" target="cElaBjvzB2i9X2xWvgC5-287" edge="1">
          <mxGeometry relative="1" as="geometry" />
        </mxCell>
        <mxCell id="cElaBjvzB2i9X2xWvgC5-286" value="Escoger Usuario" style="ellipse;whiteSpace=wrap;html=1;fillColor=#1ba1e2;fontColor=#ffffff;strokeColor=#006EAF;" parent="cElaBjvzB2i9X2xWvgC5-274" vertex="1">
          <mxGeometry x="240" y="260" width="120" height="80" as="geometry" />
        </mxCell>
        <mxCell id="cElaBjvzB2i9X2xWvgC5-291" value="" style="edgeStyle=orthogonalEdgeStyle;rounded=0;orthogonalLoop=1;jettySize=auto;html=1;" parent="cElaBjvzB2i9X2xWvgC5-274" source="cElaBjvzB2i9X2xWvgC5-287" target="cElaBjvzB2i9X2xWvgC5-290" edge="1">
          <mxGeometry relative="1" as="geometry" />
        </mxCell>
        <mxCell id="cElaBjvzB2i9X2xWvgC5-287" value="Nombre" style="whiteSpace=wrap;html=1;fillColor=#76608a;strokeColor=#432D57;fontColor=#ffffff;" parent="cElaBjvzB2i9X2xWvgC5-274" vertex="1">
          <mxGeometry x="440" y="270" width="120" height="60" as="geometry" />
        </mxCell>
        <mxCell id="cElaBjvzB2i9X2xWvgC5-292" style="edgeStyle=orthogonalEdgeStyle;rounded=0;orthogonalLoop=1;jettySize=auto;html=1;exitX=1;exitY=0.5;exitDx=0;exitDy=0;entryX=0;entryY=0.5;entryDx=0;entryDy=0;" parent="cElaBjvzB2i9X2xWvgC5-274" source="cElaBjvzB2i9X2xWvgC5-289" target="cElaBjvzB2i9X2xWvgC5-290" edge="1">
          <mxGeometry relative="1" as="geometry" />
        </mxCell>
        <mxCell id="cElaBjvzB2i9X2xWvgC5-289" value="Escoger ROL" style="ellipse;whiteSpace=wrap;html=1;fillColor=#1ba1e2;fontColor=#ffffff;strokeColor=#006EAF;" parent="cElaBjvzB2i9X2xWvgC5-274" vertex="1">
          <mxGeometry x="440" y="350" width="120" height="80" as="geometry" />
        </mxCell>
        <mxCell id="cElaBjvzB2i9X2xWvgC5-290" value="Confirmar cambios" style="whiteSpace=wrap;html=1;fillColor=#0050ef;strokeColor=#001DBC;fontColor=#ffffff;" parent="cElaBjvzB2i9X2xWvgC5-274" vertex="1">
          <mxGeometry x="640" y="320" width="120" height="60" as="geometry" />
        </mxCell>
        <mxCell id="cElaBjvzB2i9X2xWvgC5-296" value="" style="edgeStyle=orthogonalEdgeStyle;rounded=0;orthogonalLoop=1;jettySize=auto;html=1;" parent="cElaBjvzB2i9X2xWvgC5-274" source="cElaBjvzB2i9X2xWvgC5-297" target="cElaBjvzB2i9X2xWvgC5-299" edge="1">
          <mxGeometry relative="1" as="geometry" />
        </mxCell>
        <mxCell id="cElaBjvzB2i9X2xWvgC5-297" value="Escoger Categoria" style="ellipse;whiteSpace=wrap;html=1;fillColor=#1ba1e2;fontColor=#ffffff;strokeColor=#006EAF;" parent="cElaBjvzB2i9X2xWvgC5-274" vertex="1">
          <mxGeometry x="240" y="460" width="120" height="80" as="geometry" />
        </mxCell>
        <mxCell id="cElaBjvzB2i9X2xWvgC5-298" value="" style="edgeStyle=orthogonalEdgeStyle;rounded=0;orthogonalLoop=1;jettySize=auto;html=1;" parent="cElaBjvzB2i9X2xWvgC5-274" source="cElaBjvzB2i9X2xWvgC5-299" target="cElaBjvzB2i9X2xWvgC5-300" edge="1">
          <mxGeometry relative="1" as="geometry" />
        </mxCell>
        <mxCell id="cElaBjvzB2i9X2xWvgC5-299" value="Nombre" style="whiteSpace=wrap;html=1;fillColor=#76608a;strokeColor=#432D57;fontColor=#ffffff;" parent="cElaBjvzB2i9X2xWvgC5-274" vertex="1">
          <mxGeometry x="440" y="470" width="120" height="60" as="geometry" />
        </mxCell>
        <mxCell id="cElaBjvzB2i9X2xWvgC5-300" value="Borrar categoria" style="whiteSpace=wrap;html=1;fillColor=#0050ef;strokeColor=#001DBC;fontColor=#ffffff;" parent="cElaBjvzB2i9X2xWvgC5-274" vertex="1">
          <mxGeometry x="640" y="470" width="120" height="60" as="geometry" />
        </mxCell>
        <mxCell id="cElaBjvzB2i9X2xWvgC5-301" value="" style="edgeStyle=orthogonalEdgeStyle;rounded=0;orthogonalLoop=1;jettySize=auto;html=1;" parent="cElaBjvzB2i9X2xWvgC5-274" source="cElaBjvzB2i9X2xWvgC5-302" target="cElaBjvzB2i9X2xWvgC5-304" edge="1">
          <mxGeometry relative="1" as="geometry" />
        </mxCell>
        <mxCell id="cElaBjvzB2i9X2xWvgC5-302" value="Escoger plato" style="ellipse;whiteSpace=wrap;html=1;fillColor=#1ba1e2;fontColor=#ffffff;strokeColor=#006EAF;" parent="cElaBjvzB2i9X2xWvgC5-274" vertex="1">
          <mxGeometry x="240" y="550" width="120" height="80" as="geometry" />
        </mxCell>
        <mxCell id="cElaBjvzB2i9X2xWvgC5-303" value="" style="edgeStyle=orthogonalEdgeStyle;rounded=0;orthogonalLoop=1;jettySize=auto;html=1;" parent="cElaBjvzB2i9X2xWvgC5-274" source="cElaBjvzB2i9X2xWvgC5-304" target="cElaBjvzB2i9X2xWvgC5-305" edge="1">
          <mxGeometry relative="1" as="geometry" />
        </mxCell>
        <mxCell id="cElaBjvzB2i9X2xWvgC5-304" value="Nombre" style="whiteSpace=wrap;html=1;fillColor=#76608a;strokeColor=#432D57;fontColor=#ffffff;" parent="cElaBjvzB2i9X2xWvgC5-274" vertex="1">
          <mxGeometry x="440" y="560" width="120" height="60" as="geometry" />
        </mxCell>
        <mxCell id="cElaBjvzB2i9X2xWvgC5-305" value="Borrar plato" style="whiteSpace=wrap;html=1;fillColor=#0050ef;strokeColor=#001DBC;fontColor=#ffffff;" parent="cElaBjvzB2i9X2xWvgC5-274" vertex="1">
          <mxGeometry x="640" y="560" width="120" height="60" as="geometry" />
        </mxCell>
        <mxCell id="cElaBjvzB2i9X2xWvgC5-306" value="" style="edgeStyle=orthogonalEdgeStyle;rounded=0;orthogonalLoop=1;jettySize=auto;html=1;" parent="cElaBjvzB2i9X2xWvgC5-274" source="cElaBjvzB2i9X2xWvgC5-307" target="cElaBjvzB2i9X2xWvgC5-309" edge="1">
          <mxGeometry relative="1" as="geometry" />
        </mxCell>
        <mxCell id="cElaBjvzB2i9X2xWvgC5-307" value="Escoger usuario" style="ellipse;whiteSpace=wrap;html=1;fillColor=#1ba1e2;fontColor=#ffffff;strokeColor=#006EAF;" parent="cElaBjvzB2i9X2xWvgC5-274" vertex="1">
          <mxGeometry x="240" y="640" width="120" height="80" as="geometry" />
        </mxCell>
        <mxCell id="cElaBjvzB2i9X2xWvgC5-308" value="" style="edgeStyle=orthogonalEdgeStyle;rounded=0;orthogonalLoop=1;jettySize=auto;html=1;" parent="cElaBjvzB2i9X2xWvgC5-274" source="cElaBjvzB2i9X2xWvgC5-309" target="cElaBjvzB2i9X2xWvgC5-310" edge="1">
          <mxGeometry relative="1" as="geometry" />
        </mxCell>
        <mxCell id="cElaBjvzB2i9X2xWvgC5-309" value="Nombre" style="whiteSpace=wrap;html=1;fillColor=#76608a;strokeColor=#432D57;fontColor=#ffffff;" parent="cElaBjvzB2i9X2xWvgC5-274" vertex="1">
          <mxGeometry x="440" y="650" width="120" height="60" as="geometry" />
        </mxCell>
        <mxCell id="cElaBjvzB2i9X2xWvgC5-310" value="Borrar usuario" style="whiteSpace=wrap;html=1;fillColor=#0050ef;strokeColor=#001DBC;fontColor=#ffffff;" parent="cElaBjvzB2i9X2xWvgC5-274" vertex="1">
          <mxGeometry x="640" y="650" width="120" height="60" as="geometry" />
        </mxCell>
        <mxCell id="cElaBjvzB2i9X2xWvgC5-313" style="edgeStyle=orthogonalEdgeStyle;rounded=0;orthogonalLoop=1;jettySize=auto;html=1;exitX=1;exitY=0.5;exitDx=0;exitDy=0;entryX=0;entryY=0.5;entryDx=0;entryDy=0;" parent="cElaBjvzB2i9X2xWvgC5-274" source="cElaBjvzB2i9X2xWvgC5-311" target="cElaBjvzB2i9X2xWvgC5-312" edge="1">
          <mxGeometry relative="1" as="geometry" />
        </mxCell>
        <mxCell id="cElaBjvzB2i9X2xWvgC5-311" value="Escoger dia en el DatePicker" style="shape=process;whiteSpace=wrap;html=1;backgroundOutline=1;fillColor=#fad9d5;strokeColor=#ae4132;labelBackgroundColor=default;" parent="cElaBjvzB2i9X2xWvgC5-274" vertex="1">
          <mxGeometry x="240" y="775" width="120" height="60" as="geometry" />
        </mxCell>
        <mxCell id="cElaBjvzB2i9X2xWvgC5-315" value="" style="edgeStyle=orthogonalEdgeStyle;rounded=0;orthogonalLoop=1;jettySize=auto;html=1;" parent="cElaBjvzB2i9X2xWvgC5-274" source="cElaBjvzB2i9X2xWvgC5-312" target="cElaBjvzB2i9X2xWvgC5-314" edge="1">
          <mxGeometry relative="1" as="geometry" />
        </mxCell>
        <mxCell id="cElaBjvzB2i9X2xWvgC5-312" value="Listado de TicketComanda" style="whiteSpace=wrap;html=1;aspect=fixed;fillColor=#fa6800;fontColor=#000000;strokeColor=#C73500;" parent="cElaBjvzB2i9X2xWvgC5-274" vertex="1">
          <mxGeometry x="455" y="760" width="90" height="90" as="geometry" />
        </mxCell>
        <mxCell id="cElaBjvzB2i9X2xWvgC5-314" value="Borrar ticket" style="whiteSpace=wrap;html=1;fillColor=#0050ef;strokeColor=#001DBC;fontColor=#ffffff;" parent="cElaBjvzB2i9X2xWvgC5-274" vertex="1">
          <mxGeometry x="640" y="775" width="120" height="60" as="geometry" />
        </mxCell>
        <mxCell id="cElaBjvzB2i9X2xWvgC5-331" style="edgeStyle=orthogonalEdgeStyle;rounded=0;orthogonalLoop=1;jettySize=auto;html=1;exitX=1;exitY=0.5;exitDx=0;exitDy=0;entryX=0;entryY=0.5;entryDx=0;entryDy=0;" parent="cElaBjvzB2i9X2xWvgC5-274" source="cElaBjvzB2i9X2xWvgC5-316" target="cElaBjvzB2i9X2xWvgC5-324" edge="1">
          <mxGeometry relative="1" as="geometry" />
        </mxCell>
        <mxCell id="cElaBjvzB2i9X2xWvgC5-332" style="edgeStyle=orthogonalEdgeStyle;rounded=0;orthogonalLoop=1;jettySize=auto;html=1;exitX=1;exitY=0.5;exitDx=0;exitDy=0;entryX=0;entryY=0.5;entryDx=0;entryDy=0;" parent="cElaBjvzB2i9X2xWvgC5-274" source="cElaBjvzB2i9X2xWvgC5-316" target="cElaBjvzB2i9X2xWvgC5-325" edge="1">
          <mxGeometry relative="1" as="geometry" />
        </mxCell>
        <mxCell id="cElaBjvzB2i9X2xWvgC5-333" style="edgeStyle=orthogonalEdgeStyle;rounded=0;orthogonalLoop=1;jettySize=auto;html=1;exitX=1;exitY=0.5;exitDx=0;exitDy=0;entryX=0;entryY=0.5;entryDx=0;entryDy=0;" parent="cElaBjvzB2i9X2xWvgC5-274" source="cElaBjvzB2i9X2xWvgC5-316" target="cElaBjvzB2i9X2xWvgC5-326" edge="1">
          <mxGeometry relative="1" as="geometry" />
        </mxCell>
        <mxCell id="cElaBjvzB2i9X2xWvgC5-334" style="edgeStyle=orthogonalEdgeStyle;rounded=0;orthogonalLoop=1;jettySize=auto;html=1;exitX=1;exitY=0.5;exitDx=0;exitDy=0;entryX=0;entryY=0.5;entryDx=0;entryDy=0;" parent="cElaBjvzB2i9X2xWvgC5-274" source="cElaBjvzB2i9X2xWvgC5-316" target="cElaBjvzB2i9X2xWvgC5-327" edge="1">
          <mxGeometry relative="1" as="geometry" />
        </mxCell>
        <mxCell id="cElaBjvzB2i9X2xWvgC5-336" style="edgeStyle=orthogonalEdgeStyle;rounded=0;orthogonalLoop=1;jettySize=auto;html=1;exitX=0.5;exitY=0;exitDx=0;exitDy=0;" parent="cElaBjvzB2i9X2xWvgC5-274" source="cElaBjvzB2i9X2xWvgC5-316" target="cElaBjvzB2i9X2xWvgC5-323" edge="1">
          <mxGeometry relative="1" as="geometry">
            <Array as="points">
              <mxPoint x="860" y="230" />
              <mxPoint x="860" y="230" />
            </Array>
          </mxGeometry>
        </mxCell>
        <mxCell id="cElaBjvzB2i9X2xWvgC5-316" value="Escoger dia en el DatePicker" style="shape=process;whiteSpace=wrap;html=1;backgroundOutline=1;fillColor=#fad9d5;strokeColor=#ae4132;labelBackgroundColor=default;" parent="cElaBjvzB2i9X2xWvgC5-274" vertex="1">
          <mxGeometry x="800" y="400" width="120" height="60" as="geometry" />
        </mxCell>
        <mxCell id="cElaBjvzB2i9X2xWvgC5-323" value="Tabla" style="shape=parallelogram;perimeter=parallelogramPerimeter;whiteSpace=wrap;html=1;fixedSize=1;" parent="cElaBjvzB2i9X2xWvgC5-274" vertex="1">
          <mxGeometry x="850" y="90" width="213.5" height="90" as="geometry" />
        </mxCell>
        <mxCell id="cElaBjvzB2i9X2xWvgC5-324" value="Total importe SIN IVA (mes)" style="whiteSpace=wrap;html=1;fillColor=#76608a;strokeColor=#432D57;fontColor=#ffffff;" parent="cElaBjvzB2i9X2xWvgC5-274" vertex="1">
          <mxGeometry x="984" y="290" width="120" height="60" as="geometry" />
        </mxCell>
        <mxCell id="cElaBjvzB2i9X2xWvgC5-325" value="Total importe CON IVA (mes)" style="whiteSpace=wrap;html=1;fillColor=#76608a;strokeColor=#432D57;fontColor=#ffffff;" parent="cElaBjvzB2i9X2xWvgC5-274" vertex="1">
          <mxGeometry x="984" y="360" width="120" height="60" as="geometry" />
        </mxCell>
        <mxCell id="cElaBjvzB2i9X2xWvgC5-326" value="Total comensales (mes)" style="whiteSpace=wrap;html=1;fillColor=#76608a;strokeColor=#432D57;fontColor=#ffffff;" parent="cElaBjvzB2i9X2xWvgC5-274" vertex="1">
          <mxGeometry x="984" y="430" width="120" height="60" as="geometry" />
        </mxCell>
        <mxCell id="cElaBjvzB2i9X2xWvgC5-327" value="Total pedido (mes)" style="whiteSpace=wrap;html=1;fillColor=#76608a;strokeColor=#432D57;fontColor=#ffffff;" parent="cElaBjvzB2i9X2xWvgC5-274" vertex="1">
          <mxGeometry x="984" y="500" width="120" height="60" as="geometry" />
        </mxCell>
        <mxCell id="cElaBjvzB2i9X2xWvgC5-328" value="Grafica general de DATOS" style="shape=cylinder3;whiteSpace=wrap;html=1;boundedLbl=1;backgroundOutline=1;size=15;" parent="cElaBjvzB2i9X2xWvgC5-274" vertex="1">
          <mxGeometry x="840" y="640" width="240" height="140" as="geometry" />
        </mxCell>
        <mxCell id="cElaBjvzB2i9X2xWvgC5-330" style="edgeStyle=orthogonalEdgeStyle;rounded=0;orthogonalLoop=1;jettySize=auto;html=1;exitX=0.5;exitY=1;exitDx=0;exitDy=0;entryX=0.083;entryY=0.071;entryDx=0;entryDy=0;entryPerimeter=0;" parent="cElaBjvzB2i9X2xWvgC5-274" source="cElaBjvzB2i9X2xWvgC5-316" target="cElaBjvzB2i9X2xWvgC5-328" edge="1">
          <mxGeometry relative="1" as="geometry" />
        </mxCell>
        <mxCell id="cElaBjvzB2i9X2xWvgC5-335" value="" style="endArrow=none;html=1;rounded=0;fillColor=#f8cecc;strokeColor=#b85450;" parent="cElaBjvzB2i9X2xWvgC5-274" edge="1">
          <mxGeometry width="50" height="50" relative="1" as="geometry">
            <mxPoint x="580" y="910" as="sourcePoint" />
            <mxPoint x="580" y="40" as="targetPoint" />
          </mxGeometry>
        </mxCell>
        <mxCell id="cElaBjvzB2i9X2xWvgC5-356" style="edgeStyle=orthogonalEdgeStyle;rounded=0;orthogonalLoop=1;jettySize=auto;html=1;exitX=1;exitY=0.5;exitDx=0;exitDy=0;entryX=0;entryY=0.5;entryDx=0;entryDy=0;" parent="cElaBjvzB2i9X2xWvgC5-274" source="cElaBjvzB2i9X2xWvgC5-355" target="cElaBjvzB2i9X2xWvgC5-278" edge="1">
          <mxGeometry relative="1" as="geometry" />
        </mxCell>
        <mxCell id="cElaBjvzB2i9X2xWvgC5-357" style="edgeStyle=orthogonalEdgeStyle;rounded=0;orthogonalLoop=1;jettySize=auto;html=1;exitX=1;exitY=0.5;exitDx=0;exitDy=0;entryX=0;entryY=0.5;entryDx=0;entryDy=0;" parent="cElaBjvzB2i9X2xWvgC5-274" source="cElaBjvzB2i9X2xWvgC5-355" target="cElaBjvzB2i9X2xWvgC5-281" edge="1">
          <mxGeometry relative="1" as="geometry" />
        </mxCell>
        <mxCell id="cElaBjvzB2i9X2xWvgC5-358" style="edgeStyle=orthogonalEdgeStyle;rounded=0;orthogonalLoop=1;jettySize=auto;html=1;exitX=1;exitY=0.5;exitDx=0;exitDy=0;entryX=0;entryY=0.5;entryDx=0;entryDy=0;" parent="cElaBjvzB2i9X2xWvgC5-274" source="cElaBjvzB2i9X2xWvgC5-355" target="cElaBjvzB2i9X2xWvgC5-286" edge="1">
          <mxGeometry relative="1" as="geometry" />
        </mxCell>
        <mxCell id="cElaBjvzB2i9X2xWvgC5-359" style="edgeStyle=orthogonalEdgeStyle;rounded=0;orthogonalLoop=1;jettySize=auto;html=1;exitX=1;exitY=0.5;exitDx=0;exitDy=0;entryX=0;entryY=0.5;entryDx=0;entryDy=0;" parent="cElaBjvzB2i9X2xWvgC5-274" source="cElaBjvzB2i9X2xWvgC5-355" target="cElaBjvzB2i9X2xWvgC5-297" edge="1">
          <mxGeometry relative="1" as="geometry" />
        </mxCell>
        <mxCell id="cElaBjvzB2i9X2xWvgC5-360" style="edgeStyle=orthogonalEdgeStyle;rounded=0;orthogonalLoop=1;jettySize=auto;html=1;exitX=1;exitY=0.5;exitDx=0;exitDy=0;entryX=0;entryY=0.5;entryDx=0;entryDy=0;" parent="cElaBjvzB2i9X2xWvgC5-274" source="cElaBjvzB2i9X2xWvgC5-355" target="cElaBjvzB2i9X2xWvgC5-302" edge="1">
          <mxGeometry relative="1" as="geometry" />
        </mxCell>
        <mxCell id="cElaBjvzB2i9X2xWvgC5-361" style="edgeStyle=orthogonalEdgeStyle;rounded=0;orthogonalLoop=1;jettySize=auto;html=1;exitX=1;exitY=0.5;exitDx=0;exitDy=0;entryX=0;entryY=0.5;entryDx=0;entryDy=0;" parent="cElaBjvzB2i9X2xWvgC5-274" source="cElaBjvzB2i9X2xWvgC5-355" target="cElaBjvzB2i9X2xWvgC5-307" edge="1">
          <mxGeometry relative="1" as="geometry" />
        </mxCell>
        <mxCell id="cElaBjvzB2i9X2xWvgC5-362" style="edgeStyle=orthogonalEdgeStyle;rounded=0;orthogonalLoop=1;jettySize=auto;html=1;exitX=1;exitY=0.5;exitDx=0;exitDy=0;entryX=0;entryY=0.5;entryDx=0;entryDy=0;" parent="cElaBjvzB2i9X2xWvgC5-274" source="cElaBjvzB2i9X2xWvgC5-355" target="cElaBjvzB2i9X2xWvgC5-311" edge="1">
          <mxGeometry relative="1" as="geometry" />
        </mxCell>
        <mxCell id="cElaBjvzB2i9X2xWvgC5-363" style="edgeStyle=orthogonalEdgeStyle;rounded=0;orthogonalLoop=1;jettySize=auto;html=1;exitX=1;exitY=0.5;exitDx=0;exitDy=0;" parent="cElaBjvzB2i9X2xWvgC5-274" source="cElaBjvzB2i9X2xWvgC5-355" edge="1">
          <mxGeometry relative="1" as="geometry">
            <mxPoint x="800" y="440" as="targetPoint" />
            <Array as="points">
              <mxPoint x="800" y="440" />
            </Array>
          </mxGeometry>
        </mxCell>
        <mxCell id="cElaBjvzB2i9X2xWvgC5-355" value="Acción INICIAL en la escena. Seleccion de elemento." style="whiteSpace=wrap;html=1;rounded=0;fillColor=#6d8764;fontColor=#ffffff;strokeColor=#3A5431;" parent="cElaBjvzB2i9X2xWvgC5-274" vertex="1">
          <mxGeometry x="20" y="410" width="120" height="60" as="geometry" />
        </mxCell>
        <mxCell id="cElaBjvzB2i9X2xWvgC5-276" style="edgeStyle=orthogonalEdgeStyle;rounded=0;orthogonalLoop=1;jettySize=auto;html=1;exitX=1;exitY=0.5;exitDx=0;exitDy=0;" parent="1" source="cElaBjvzB2i9X2xWvgC5-86" edge="1">
          <mxGeometry relative="1" as="geometry">
            <mxPoint x="1100" y="1759" as="targetPoint" />
            <Array as="points">
              <mxPoint x="1100" y="1530" />
              <mxPoint x="1100" y="1759" />
            </Array>
          </mxGeometry>
        </mxCell>
        <mxCell id="cElaBjvzB2i9X2xWvgC5-277" value="Clickar para entrar en la Escena" style="text;html=1;align=center;verticalAlign=middle;whiteSpace=wrap;rounded=0;" parent="1" vertex="1">
          <mxGeometry x="960" y="1700" width="130" height="30" as="geometry" />
        </mxCell>
        <mxCell id="cElaBjvzB2i9X2xWvgC5-340" style="edgeStyle=orthogonalEdgeStyle;rounded=0;orthogonalLoop=1;jettySize=auto;html=1;exitX=0.5;exitY=0;exitDx=0;exitDy=0;entryX=0;entryY=0.5;entryDx=0;entryDy=0;dashed=1;" parent="1" source="cElaBjvzB2i9X2xWvgC5-338" target="cElaBjvzB2i9X2xWvgC5-124" edge="1">
          <mxGeometry relative="1" as="geometry">
            <Array as="points">
              <mxPoint x="1230" y="930" />
              <mxPoint x="1230" y="670" />
            </Array>
          </mxGeometry>
        </mxCell>
        <mxCell id="cElaBjvzB2i9X2xWvgC5-342" style="edgeStyle=orthogonalEdgeStyle;rounded=0;orthogonalLoop=1;jettySize=auto;html=1;exitX=0.5;exitY=1;exitDx=0;exitDy=0;dashed=1;" parent="1" source="cElaBjvzB2i9X2xWvgC5-338" edge="1">
          <mxGeometry relative="1" as="geometry">
            <mxPoint x="1200" y="1050" as="targetPoint" />
            <Array as="points">
              <mxPoint x="1270" y="1050" />
            </Array>
          </mxGeometry>
        </mxCell>
        <mxCell id="cElaBjvzB2i9X2xWvgC5-338" value="" style="rhombus;whiteSpace=wrap;html=1;fillColor=#fad7ac;strokeColor=#b46504;rounded=0;" parent="1" vertex="1">
          <mxGeometry x="1230" y="930" width="80" height="80" as="geometry" />
        </mxCell>
        <mxCell id="cElaBjvzB2i9X2xWvgC5-341" value="SI?" style="text;html=1;align=center;verticalAlign=middle;whiteSpace=wrap;rounded=0;" parent="1" vertex="1">
          <mxGeometry x="1240" y="810" width="60" height="30" as="geometry" />
        </mxCell>
        <mxCell id="cElaBjvzB2i9X2xWvgC5-344" value="NO?" style="text;html=1;align=center;verticalAlign=middle;whiteSpace=wrap;rounded=0;" parent="1" vertex="1">
          <mxGeometry x="1210" y="1050" width="60" height="30" as="geometry" />
        </mxCell>
        <mxCell id="cElaBjvzB2i9X2xWvgC5-365" value="Leyenda:" style="text;html=1;align=center;verticalAlign=middle;whiteSpace=wrap;rounded=0;fontSize=20;" parent="1" vertex="1">
          <mxGeometry x="1440" y="40" width="145" height="70" as="geometry" />
        </mxCell>
        <mxCell id="cElaBjvzB2i9X2xWvgC5-366" value="Inicio y apertura de la App" style="rounded=1;whiteSpace=wrap;html=1;fillColor=#60a917;fontColor=#ffffff;strokeColor=#2D7600;" parent="1" vertex="1">
          <mxGeometry x="1640" y="50" width="120" height="60" as="geometry" />
        </mxCell>
        <mxCell id="cElaBjvzB2i9X2xWvgC5-367" value="Accion inicial necesaria para inicialzar la escena" style="rounded=0;whiteSpace=wrap;html=1;fillColor=#6d8764;fontColor=#ffffff;strokeColor=#3A5431;" parent="1" vertex="1">
          <mxGeometry x="1640" y="140" width="120" height="60" as="geometry" />
        </mxCell>
        <mxCell id="cElaBjvzB2i9X2xWvgC5-368" value="Botones" style="rounded=0;whiteSpace=wrap;html=1;fillColor=#0050ef;fontColor=#ffffff;strokeColor=#001DBC;" parent="1" vertex="1">
          <mxGeometry x="1850" y="50" width="120" height="60" as="geometry" />
        </mxCell>
        <mxCell id="cElaBjvzB2i9X2xWvgC5-369" value="Decisiones" style="rhombus;whiteSpace=wrap;html=1;rounded=0;fillColor=#fad7ac;strokeColor=#b46504;labelBackgroundColor=default;" parent="1" vertex="1">
          <mxGeometry x="1660" y="230" width="80" height="80" as="geometry" />
        </mxCell>
        <mxCell id="cElaBjvzB2i9X2xWvgC5-370" value="Escena" style="whiteSpace=wrap;html=1;rounded=0;fillColor=#a0522d;fontColor=#ffffff;strokeColor=#6D1F00;" parent="1" vertex="1">
          <mxGeometry x="1850" y="140" width="120" height="60" as="geometry" />
        </mxCell>
        <mxCell id="cElaBjvzB2i9X2xWvgC5-371" value="Combox" style="ellipse;whiteSpace=wrap;html=1;fillColor=#1ba1e2;fontColor=#ffffff;strokeColor=#006EAF;" parent="1" vertex="1">
          <mxGeometry x="1850" y="230" width="120" height="80" as="geometry" />
        </mxCell>
        <mxCell id="cElaBjvzB2i9X2xWvgC5-372" value="ListView" style="whiteSpace=wrap;html=1;aspect=fixed;fillColor=#fa6800;fontColor=#000000;strokeColor=#C73500;" parent="1" vertex="1">
          <mxGeometry x="1870" y="340" width="80" height="80" as="geometry" />
        </mxCell>
        <mxCell id="cElaBjvzB2i9X2xWvgC5-373" value="TextArea" style="whiteSpace=wrap;html=1;aspect=fixed;fillColor=#f0a30a;fontColor=#000000;strokeColor=#BD7000;" parent="1" vertex="1">
          <mxGeometry x="1870" y="450" width="80" height="80" as="geometry" />
        </mxCell>
        <mxCell id="cElaBjvzB2i9X2xWvgC5-374" value="Spinner" style="shape=hexagon;perimeter=hexagonPerimeter2;whiteSpace=wrap;html=1;fixedSize=1;fillColor=#6a00ff;strokeColor=#3700CC;fontColor=#ffffff;" parent="1" vertex="1">
          <mxGeometry x="1865" y="565" width="90" height="50" as="geometry" />
        </mxCell>
        <mxCell id="cElaBjvzB2i9X2xWvgC5-375" value="ChcekBox" style="shape=hexagon;perimeter=hexagonPerimeter2;whiteSpace=wrap;html=1;fixedSize=1;fillColor=#d80073;fontColor=#ffffff;strokeColor=#A50040;" parent="1" vertex="1">
          <mxGeometry x="1865" y="645" width="90" height="50" as="geometry" />
        </mxCell>
        <mxCell id="cElaBjvzB2i9X2xWvgC5-376" value="DatePicker" style="shape=process;whiteSpace=wrap;html=1;backgroundOutline=1;fillColor=#fad9d5;strokeColor=#ae4132;labelBackgroundColor=default;" parent="1" vertex="1">
          <mxGeometry x="1850" y="730" width="120" height="60" as="geometry" />
        </mxCell>
        <mxCell id="cElaBjvzB2i9X2xWvgC5-377" value="Tablas" style="shape=parallelogram;perimeter=parallelogramPerimeter;whiteSpace=wrap;html=1;fixedSize=1;" parent="1" vertex="1">
          <mxGeometry x="1646.62" y="340" width="106.75" height="50" as="geometry" />
        </mxCell>
        <mxCell id="cElaBjvzB2i9X2xWvgC5-378" value="Graficos" style="shape=cylinder3;whiteSpace=wrap;html=1;boundedLbl=1;backgroundOutline=1;size=15;" parent="1" vertex="1">
          <mxGeometry x="1660" y="420" width="95" height="70" as="geometry" />
        </mxCell>
        <mxCell id="cElaBjvzB2i9X2xWvgC5-379" value="" style="swimlane;startSize=0;" parent="1" vertex="1">
          <mxGeometry x="1440" y="20" width="690" height="860" as="geometry" />
        </mxCell>
        <mxCell id="cElaBjvzB2i9X2xWvgC5-380" value="Accion realizada" style="whiteSpace=wrap;html=1;rounded=0;fillColor=#647687;fontColor=#ffffff;strokeColor=#314354;" parent="cElaBjvzB2i9X2xWvgC5-379" vertex="1">
          <mxGeometry x="210" y="504" width="120" height="60" as="geometry" />
        </mxCell>
        <mxCell id="cElaBjvzB2i9X2xWvgC5-381" value="FIN y cierre de la App" style="rounded=1;whiteSpace=wrap;html=1;fillColor=#a20025;fontColor=#ffffff;strokeColor=#6F0000;" parent="cElaBjvzB2i9X2xWvgC5-379" vertex="1">
          <mxGeometry x="210" y="595" width="120" height="60" as="geometry" />
        </mxCell>
      </root>
    </mxGraphModel>
  </diagram>
</mxfile>
